<?xml version="1.0" encoding="UTF-8" standalone="no"?>
<svg
   width="185"
   height="188"
   fill="none"
   version="1.1"
   id="svg179"
   sodipodi:docname="card-bg-img.svg"
   inkscape:version="1.2.2 (732a01da63, 2022-12-09)"
   xmlns:inkscape="http://www.inkscape.org/namespaces/inkscape"
   xmlns:sodipodi="http://sodipodi.sourceforge.net/DTD/sodipodi-0.dtd"
   xmlns="http://www.w3.org/2000/svg"
   xmlns:svg="http://www.w3.org/2000/svg">
  <sodipodi:namedview
     id="namedview181"
     pagecolor="#ffffff"
     bordercolor="#000000"
     borderopacity="0.25"
     inkscape:showpageshadow="2"
     inkscape:pageopacity="0.0"
     inkscape:pagecheckerboard="0"
     inkscape:deskcolor="#d1d1d1"
     showgrid="false"
     inkscape:zoom="4.5106383"
     inkscape:cx="92.558962"
     inkscape:cy="94"
     inkscape:window-width="1795"
     inkscape:window-height="1046"
     inkscape:window-x="-11"
     inkscape:window-y="-11"
     inkscape:window-maximized="1"
     inkscape:current-layer="svg179" />
  <path
     d="M127.752 87.548c63.034-23.157 111.687-48.587 108.67-56.8-3.016-8.211-56.561 3.904-119.595 27.062C53.793 80.967 5.139 106.397 8.157 114.609c3.016 8.212 56.561-3.903 119.595-27.06Z"
     stroke="url(#a)"
     stroke-width=".5"
     stroke-miterlimit="10"
     id="path2" />
  <path
     d="M108.978 36.446C165.841 15.556 209.73-7.388 207.007-14.8c-2.723-7.412-51.027 3.514-107.89 24.405C42.254 30.495-1.635 53.439 1.088 60.85c2.723 7.412 51.027-3.514 107.89-24.405Z"
     stroke="url(#b)"
     stroke-width=".5"
     stroke-miterlimit="10"
     id="path4" />
  <path
     d="m 89.484734,37.917906 c 53.641996,-19.707 95.044996,-41.3520002 92.475996,-48.344 -2.569,-6.993 -48.137,3.3139998 -101.779996,23.021 -53.641998,19.707 -95.044998,41.352 -92.475998,48.345 2.569,6.992 48.137,-3.315 101.779998,-23.022 z"
     stroke="url(#c)"
     stroke-width="0.5"
     stroke-miterlimit="10"
     id="path6"
     style="stroke:url(#c)" />
  <path
     d="m 198.54996,50.514547 c 58.567,-21.516 103.771,-45.1449998 100.968,-52.7759998 -2.804,-7.632 -52.554,3.624 -111.121,25.1399998 -58.566,21.516 -103.769998,45.145 -100.966998,52.777 2.804,7.631 52.553998,-3.625 111.119998,-25.14 z"
     stroke="url(#d)"
     stroke-width="0.5"
     stroke-miterlimit="10"
     id="path8"
     style="stroke:url(#d)" />
  <path
     d="m 127.9407,75.42683 c 60.469,-22.215 107.141,-46.615 104.245,-54.498 -2.896,-7.883 -54.264,3.736 -114.733,25.95 -60.470002,22.217 -107.141002,46.616 -104.245002,54.499 2.896,7.883 54.263,-3.735 114.733002,-25.95 z"
     stroke="url(#e)"
     stroke-width="0.5"
     stroke-miterlimit="10"
     id="path10"
     style="stroke:url(#e)" />
  <path
     d="M120.131 66.804c62.018-22.784 109.887-47.807 106.917-55.89-2.969-8.083-55.652 3.834-117.671 26.619C47.359 60.317-.509 85.34 2.46 93.423c2.97 8.083 55.653-3.835 117.671-26.62Z"
     stroke="url(#f)"
     stroke-width=".5"
     stroke-miterlimit="10"
     id="path12" />
  <path
     d="m 252.4176,91.130774 c 62.616,-23.004 110.946,-48.268 107.948,-56.428 -2.998,-8.16 -56.188,3.872 -118.804,26.876 -62.617,23.004 -110.947,48.267996 -107.949,56.427996 2.998,8.16 56.189,-3.873 118.805,-26.875996 z"
     stroke="url(#g)"
     stroke-width="0.5"
     stroke-miterlimit="10"
     id="path14"
     style="stroke:url(#g)" />
  <path
     d="M101.949 17.314c50.827-18.673 90.058-39.181 87.624-45.806-2.434-6.625-45.611 3.141-96.438 21.814C42.308 11.995 3.078 32.502 5.512 39.128c2.434 6.625 45.61-3.142 96.437-21.814Z"
     stroke="url(#h)"
     stroke-width=".5"
     stroke-miterlimit="10"
     id="path16" />
  <path
     d="M98.323 7.444c46.527-17.093 82.438-35.866 80.21-41.93-2.227-6.063-41.75 2.877-88.277 19.97S7.818 21.35 10.046 27.414c2.228 6.063 41.75-2.877 88.277-19.97Z"
     stroke="url(#i)"
     stroke-width=".5"
     stroke-miterlimit="10"
     id="path18" />
  <path
     d="M94.654-2.543c41.661-15.305 73.816-32.116 71.82-37.548-1.995-5.431-37.385 2.573-79.046 17.878-41.66 15.305-73.815 32.116-71.82 37.547 1.996 5.432 37.386-2.572 79.046-17.877Z"
     stroke="url(#j)"
     stroke-width=".5"
     stroke-miterlimit="10"
     id="path20" />
  <path
     d="M90.84-12.927c35.219-12.939 62.404-27.146 60.719-31.733-1.685-4.587-31.602 2.184-66.822 15.123-35.22 12.94-62.404 27.147-60.72 31.733C25.704 6.783 55.62.012 90.84-12.927Z"
     stroke="url(#k)"
     stroke-width=".5"
     stroke-miterlimit="10"
     id="path22" />
  <path
     d="M86.477-23.76c26.284-9.656 46.572-20.26 45.314-23.686-1.259-3.425-23.587 1.626-49.871 11.282-26.285 9.656-46.572 20.261-45.314 23.687 1.258 3.425 23.586-1.626 49.87-11.282Z"
     stroke="url(#l)"
     stroke-width=".5"
     stroke-miterlimit="10"
     id="path24" />
  <path
     d="M82.433-35.81c13.274-4.876 23.52-10.23 22.885-11.96-.635-1.728-11.91.824-25.185 5.7-13.274 4.877-23.52 10.232-22.885 11.96.636 1.73 11.911-.823 25.185-5.7Z"
     stroke="url(#m)"
     stroke-width=".5"
     stroke-miterlimit="10"
     id="path26" />
  <path
     d="M145.522 135.917c56.863-20.89 100.752-43.834 98.029-51.246-2.723-7.412-51.027 3.514-107.89 24.404-56.863 20.891-100.752 43.834-98.03 51.246 2.724 7.413 51.028-3.514 107.891-24.404Z"
     stroke="url(#n)"
     stroke-width=".5"
     stroke-miterlimit="10"
     id="path28" />
  <path
     d="M148.491 144c53.643-19.707 95.046-41.352 92.477-48.345-2.569-6.992-48.137 3.315-101.78 23.022-53.642 19.707-95.046 41.351-92.477 48.344 2.57 6.993 48.138-3.314 101.78-23.021Z"
     stroke="url(#o)"
     stroke-width=".5"
     stroke-miterlimit="10"
     id="path30" />
  <path
     d="M142.921 128.839c58.567-21.516 103.772-45.145 100.968-52.777-2.804-7.631-52.554 3.625-111.12 25.141-58.567 21.516-103.772 45.145-100.968 52.776 2.804 7.632 52.554-3.624 111.12-25.14Z"
     stroke="url(#p)"
     stroke-width=".5"
     stroke-miterlimit="10"
     id="path32" />
  <path
     d="m 125.19102,109.72708 c 60.469,-22.215005 107.141,-46.614005 104.245,-54.498005 -2.896,-7.883 -54.263,3.736 -114.733,25.95 C 54.234019,103.39508 7.5630189,127.79408 10.458019,135.67808 c 2.896,7.883 54.264,-3.736 114.733001,-25.951 z"
     stroke="url(#q)"
     stroke-width="0.5"
     stroke-miterlimit="10"
     id="path34"
     style="stroke:url(#q)" />
  <path
     d="M 0.46454717,139.90153 C 62.483547,117.11753 110.35155,92.094528 107.38255,84.011528 c -2.97,-8.083 -55.653003,3.835 -117.671003,26.620002 -62.019,22.783 -109.886997,47.806 -106.917997,55.889 2.97,8.083 55.652997,-3.834 117.67099717,-26.619 z"
     stroke="url(#r)"
     stroke-width="0.5"
     stroke-miterlimit="10"
     id="path36"
     style="stroke:url(#r)" />
  <path
     d="M131.885 98.797c62.616-23.004 110.946-48.268 107.948-56.428-2.998-8.16-56.189 3.872-118.805 26.876C58.412 92.249 10.082 117.513 13.08 125.673c2.998 8.16 56.188-3.873 118.805-26.876Z"
     stroke="url(#s)"
     stroke-width=".5"
     stroke-miterlimit="10"
     id="path38" />
  <path
     d="M151.499 152.188c50.827-18.673 90.058-39.181 87.624-45.806-2.434-6.625-45.611 3.142-96.438 21.814-50.827 18.673-90.057 39.181-87.623 45.806 2.434 6.625 45.61-3.141 96.437-21.814Z"
     stroke="url(#t)"
     stroke-width=".5"
     stroke-miterlimit="10"
     id="path40" />
  <path
     d="M154.379 160.026c46.526-17.093 82.438-35.866 80.21-41.929-2.228-6.064-41.751 2.876-88.278 19.969-46.526 17.093-82.437 35.866-80.21 41.929 2.228 6.064 41.751-2.876 88.278-19.969Z"
     stroke="url(#u)"
     stroke-width=".5"
     stroke-miterlimit="10"
     id="path42" />
  <path
     d="M157.211 167.735c41.66-15.306 73.815-32.116 71.82-37.548-1.996-5.432-37.386 2.573-79.046 17.878-41.661 15.305-73.816 32.116-71.82 37.547 1.995 5.432 37.385-2.572 79.046-17.877Z"
     stroke="url(#v)"
     stroke-width=".5"
     stroke-miterlimit="10"
     id="path44" />
  <path
     d="m 88.070808,37.605174 c 35.220002,-12.939 62.405002,-27.146 60.720002,-31.7320004 -1.685,-4.587 -31.602,2.184 -66.822002,15.1230004 -35.218996,12.939 -62.403996,27.146 -60.719996,31.733 1.686,4.586 31.603,-2.185 66.821996,-15.124 z"
     stroke="url(#w)"
     stroke-width="0.5"
     stroke-miterlimit="10"
     id="path46"
     style="stroke:url(#w)" />
  <path
     d="M162.719 181.686c26.285-9.657 46.572-20.262 45.314-23.687-1.258-3.426-23.586 1.626-49.871 11.282-26.284 9.656-46.572 20.261-45.314 23.687 1.259 3.425 23.587-1.626 49.871-11.282Z"
     stroke="url(#x)"
     stroke-width=".5"
     stroke-miterlimit="10"
     id="path48" />
  <path
     d="M164.502 187.58c13.274-4.877 23.519-10.232 22.884-11.96-.635-1.729-11.91.822-25.184 5.699-13.274 4.877-23.52 10.231-22.885 11.96.635 1.729 11.911-.823 25.185-5.699Z"
     stroke="url(#y)"
     stroke-width=".5"
     stroke-miterlimit="10"
     id="path50" />
  <defs
     id="defs177">
    <linearGradient
       id="a"
       x1="94.706"
       y1="-2.403"
       x2="164.502"
       y2="187.58"
       gradientUnits="userSpaceOnUse">
      <stop
         stop-color="#360CF8"
         stop-opacity=".01"
         id="stop52" />
      <stop
         offset="1"
         stop-color="#6BFFAF"
         id="stop54" />
    </linearGradient>
    <linearGradient
       id="b"
       x1="94.706"
       y1="-2.403"
       x2="164.502"
       y2="187.58"
       gradientUnits="userSpaceOnUse">
      <stop
         stop-color="#360CF8"
         stop-opacity=".01"
         id="stop57" />
      <stop
         offset="1"
         stop-color="#6BFFAF"
         id="stop59" />
    </linearGradient>
    <linearGradient
       id="c"
       x1="94.706"
       y1="-2.403"
       x2="164.502"
       y2="187.58"
       gradientUnits="userSpaceOnUse"
       gradientTransform="translate(-15.962264,11.084906)">
      <stop
         stop-color="#360CF8"
         stop-opacity=".01"
         id="stop62" />
      <stop
         offset="1"
         stop-color="#6BFFAF"
         id="stop64" />
    </linearGradient>
    <linearGradient
       id="d"
       x1="94.706"
       y1="-2.403"
       x2="164.502"
       y2="187.58"
       gradientUnits="userSpaceOnUse"
       gradientTransform="translate(86.683962,6.2075472)">
      <stop
         stop-color="#360CF8"
         stop-opacity=".01"
         id="stop67" />
      <stop
         offset="1"
         stop-color="#6BFFAF"
         id="stop69" />
    </linearGradient>
    <linearGradient
       id="e"
       x1="94.706"
       y1="-2.403"
       x2="164.502"
       y2="187.58"
       gradientUnits="userSpaceOnUse"
       gradientTransform="translate(11.971698,19.95283)">
      <stop
         stop-color="#360CF8"
         stop-opacity=".01"
         id="stop72" />
      <stop
         offset="1"
         stop-color="#6BFFAF"
         id="stop74" />
    </linearGradient>
    <linearGradient
       id="f"
       x1="94.706"
       y1="-2.403"
       x2="164.502"
       y2="187.58"
       gradientUnits="userSpaceOnUse">
      <stop
         stop-color="#360CF8"
         stop-opacity=".01"
         id="stop77" />
      <stop
         offset="1"
         stop-color="#6BFFAF"
         id="stop79" />
    </linearGradient>
    <linearGradient
       id="g"
       x1="94.706"
       y1="-2.403"
       x2="164.502"
       y2="187.58"
       gradientUnits="userSpaceOnUse"
       gradientTransform="translate(128.8066,14.853774)">
      <stop
         stop-color="#360CF8"
         stop-opacity=".01"
         id="stop82" />
      <stop
         offset="1"
         stop-color="#6BFFAF"
         id="stop84" />
    </linearGradient>
    <linearGradient
       id="h"
       x1="94.706"
       y1="-2.403"
       x2="164.502"
       y2="187.58"
       gradientUnits="userSpaceOnUse">
      <stop
         stop-color="#360CF8"
         stop-opacity=".01"
         id="stop87" />
      <stop
         offset="1"
         stop-color="#6BFFAF"
         id="stop89" />
    </linearGradient>
    <linearGradient
       id="i"
       x1="94.706"
       y1="-2.403"
       x2="164.502"
       y2="187.58"
       gradientUnits="userSpaceOnUse">
      <stop
         stop-color="#360CF8"
         stop-opacity=".01"
         id="stop92" />
      <stop
         offset="1"
         stop-color="#6BFFAF"
         id="stop94" />
    </linearGradient>
    <linearGradient
       id="j"
       x1="94.706"
       y1="-2.403"
       x2="164.502"
       y2="187.58"
       gradientUnits="userSpaceOnUse">
      <stop
         stop-color="#360CF8"
         stop-opacity=".01"
         id="stop97" />
      <stop
         offset="1"
         stop-color="#6BFFAF"
         id="stop99" />
    </linearGradient>
    <linearGradient
       id="k"
       x1="94.706"
       y1="-2.403"
       x2="164.502"
       y2="187.58"
       gradientUnits="userSpaceOnUse">
      <stop
         stop-color="#360CF8"
         stop-opacity=".01"
         id="stop102" />
      <stop
         offset="1"
         stop-color="#6BFFAF"
         id="stop104" />
    </linearGradient>
    <linearGradient
       id="l"
       x1="94.706"
       y1="-2.403"
       x2="164.502"
       y2="187.58"
       gradientUnits="userSpaceOnUse">
      <stop
         stop-color="#360CF8"
         stop-opacity=".01"
         id="stop107" />
      <stop
         offset="1"
         stop-color="#6BFFAF"
         id="stop109" />
    </linearGradient>
    <linearGradient
       id="m"
       x1="94.706"
       y1="-2.403"
       x2="164.502"
       y2="187.58"
       gradientUnits="userSpaceOnUse">
      <stop
         stop-color="#360CF8"
         stop-opacity=".01"
         id="stop112" />
      <stop
         offset="1"
         stop-color="#6BFFAF"
         id="stop114" />
    </linearGradient>
    <linearGradient
       id="n"
       x1="94.706"
       y1="-2.403"
       x2="164.502"
       y2="187.58"
       gradientUnits="userSpaceOnUse">
      <stop
         stop-color="#360CF8"
         stop-opacity=".01"
         id="stop117" />
      <stop
         offset="1"
         stop-color="#6BFFAF"
         id="stop119" />
    </linearGradient>
    <linearGradient
       id="o"
       x1="94.706"
       y1="-2.403"
       x2="164.502"
       y2="187.58"
       gradientUnits="userSpaceOnUse">
      <stop
         stop-color="#360CF8"
         stop-opacity=".01"
         id="stop122" />
      <stop
         offset="1"
         stop-color="#6BFFAF"
         id="stop124" />
    </linearGradient>
    <linearGradient
       id="p"
       x1="94.706"
       y1="-2.403"
       x2="164.502"
       y2="187.58"
       gradientUnits="userSpaceOnUse">
      <stop
         stop-color="#360CF8"
         stop-opacity=".01"
         id="stop127" />
      <stop
         offset="1"
         stop-color="#6BFFAF"
         id="stop129" />
    </linearGradient>
    <linearGradient
       id="q"
       x1="94.706"
       y1="-2.403"
       x2="164.502"
       y2="187.58"
       gradientUnits="userSpaceOnUse"
       gradientTransform="translate(-13.966981,-8.8679245)">
      <stop
         stop-color="#360CF8"
         stop-opacity=".01"
         id="stop132" />
      <stop
         offset="1"
         stop-color="#6BFFAF"
         id="stop134" />
    </linearGradient>
    <linearGradient
       id="r"
       x1="94.706"
       y1="-2.403"
       x2="164.502"
       y2="187.58"
       gradientUnits="userSpaceOnUse"
       gradientTransform="translate(-134.79245,31.924528)">
      <stop
         stop-color="#360CF8"
         stop-opacity=".01"
         id="stop137" />
      <stop
         offset="1"
         stop-color="#6BFFAF"
         id="stop139" />
    </linearGradient>
    <linearGradient
       id="s"
       x1="94.706"
       y1="-2.403"
       x2="164.502"
       y2="187.58"
       gradientUnits="userSpaceOnUse">
      <stop
         stop-color="#360CF8"
         stop-opacity=".01"
         id="stop142" />
      <stop
         offset="1"
         stop-color="#6BFFAF"
         id="stop144" />
    </linearGradient>
    <linearGradient
       id="t"
       x1="94.706"
       y1="-2.403"
       x2="164.502"
       y2="187.58"
       gradientUnits="userSpaceOnUse">
      <stop
         stop-color="#360CF8"
         stop-opacity=".01"
         id="stop147" />
      <stop
         offset="1"
         stop-color="#6BFFAF"
         id="stop149" />
    </linearGradient>
    <linearGradient
       id="u"
       x1="94.706"
       y1="-2.403"
       x2="164.502"
       y2="187.58"
       gradientUnits="userSpaceOnUse">
      <stop
         stop-color="#360CF8"
         stop-opacity=".01"
         id="stop152" />
      <stop
         offset="1"
         stop-color="#6BFFAF"
         id="stop154" />
    </linearGradient>
    <linearGradient
       id="v"
       x1="94.706"
       y1="-2.403"
       x2="164.502"
       y2="187.58"
       gradientUnits="userSpaceOnUse">
      <stop
         stop-color="#360CF8"
         stop-opacity=".01"
         id="stop157" />
      <stop
         offset="1"
         stop-color="#6BFFAF"
         id="stop159" />
    </linearGradient>
    <linearGradient
       id="w"
       x1="94.706"
       y1="-2.403"
       x2="164.502"
       y2="187.58"
       gradientUnits="userSpaceOnUse"
       gradientTransform="translate(-71.830188,-137.45283)">
      <stop
         stop-color="#360CF8"
         stop-opacity=".01"
         id="stop162" />
      <stop
         offset="1"
         stop-color="#6BFFAF"
         id="stop164" />
    </linearGradient>
    <linearGradient
       id="x"
       x1="94.706"
       y1="-2.403"
       x2="164.502"
       y2="187.58"
       gradientUnits="userSpaceOnUse">
      <stop
         stop-color="#360CF8"
         stop-opacity=".01"
         id="stop167" />
      <stop
         offset="1"
         stop-color="#6BFFAF"
         id="stop169" />
    </linearGradient>
    <linearGradient
       id="y"
       x1="94.706"
       y1="-2.403"
       x2="164.502"
       y2="187.58"
       gradientUnits="userSpaceOnUse">
      <stop
         stop-color="#360CF8"
         stop-opacity=".01"
         id="stop172" />
      <stop
         offset="1"
         stop-color="#6BFFAF"
         id="stop174" />
    </linearGradient>
  </defs>
</svg>
