<svg width="16" height="16" viewBox="0 0 28 28" fill="none" xmlns="http://www.w3.org/2000/svg">
<path d="M12.4006 17.152V16.9858C12.4048 16.2145 12.4773 15.6009 12.6179 15.1449C12.7628 14.6889 12.9673 14.3224 13.2315 14.0455C13.4957 13.7642 13.8175 13.5064 14.1967 13.272C14.4567 13.1101 14.6889 12.9332 14.8935 12.7415C15.1023 12.5455 15.2663 12.3281 15.3857 12.0895C15.505 11.8466 15.5646 11.576 15.5646 11.2777C15.5646 10.9411 15.4858 10.6491 15.3281 10.402C15.1705 10.1548 14.9574 9.96307 14.6889 9.8267C14.4247 9.69034 14.1286 9.62216 13.8004 9.62216C13.4979 9.62216 13.2102 9.68821 12.9375 9.82031C12.669 9.94815 12.4453 10.1442 12.2663 10.4084C12.0916 10.6683 11.9936 10.9986 11.9723 11.3991H9.69673C9.71804 10.5895 9.91406 9.91193 10.2848 9.36648C10.6598 8.82102 11.1541 8.41193 11.7678 8.1392C12.3857 7.86648 13.0675 7.73011 13.8132 7.73011C14.6271 7.73011 15.343 7.87287 15.9609 8.15838C16.5831 8.44389 17.0668 8.85085 17.4119 9.37926C17.7614 9.90341 17.9361 10.5256 17.9361 11.2457C17.9361 11.7315 17.8572 12.1662 17.6996 12.5497C17.5462 12.9332 17.3267 13.2741 17.0412 13.5724C16.7557 13.8707 16.4169 14.1371 16.0249 14.3714C15.6797 14.5845 15.3963 14.8061 15.1747 15.0362C14.9574 15.2663 14.7955 15.5369 14.6889 15.848C14.5866 16.1548 14.5334 16.5341 14.5291 16.9858V17.152H12.4006ZM13.5128 21.1406C13.1293 21.1406 12.799 21.0043 12.522 20.7315C12.245 20.4588 12.1065 20.1264 12.1065 19.7344C12.1065 19.3509 12.245 19.0227 12.522 18.75C12.799 18.4773 13.1293 18.3409 13.5128 18.3409C13.892 18.3409 14.2202 18.4773 14.4972 18.75C14.7784 19.0227 14.919 19.3509 14.919 19.7344C14.919 19.9943 14.853 20.2308 14.7209 20.4439C14.593 20.657 14.4226 20.8274 14.2095 20.9553C14.0007 21.0788 13.7685 21.1406 13.5128 21.1406Z" fill="white" fill-opacity="1"/>
<defs>
<filter id="filter0_b_9_3" x="-5" y="-5" width="38" height="38" filterUnits="userSpaceOnUse" color-interpolation-filters="sRGB">
<feFlood flood-opacity="0" result="BackgroundImageFix"/>
<feGaussianBlur in="BackgroundImageFix" stdDeviation="2.5"/>
<feComposite in2="SourceAlpha" operator="in" result="effect1_backgroundBlur_9_3"/>
<feBlend mode="normal" in="SourceGraphic" in2="effect1_backgroundBlur_9_3" result="shape"/>
</filter>
</defs>
</svg>
