<svg width="436" height="436" viewBox="0 0 436 436" fill="none" xmlns="http://www.w3.org/2000/svg">
  <style>
.anim-eco path {
  -webkit-transform-origin: 50% 50%;

  transform-origin: 50% 50%;
}
.anim-eco path:nth-of-type(odd) {
  animation: rotate 5s infinite linear reverse;
}
.anim-eco path:nth-of-type(even) {
  -webkit-animation: rotate 7s infinite linear;
  animation: rotate 7s infinite linear;
}

  @-webkit-keyframes rotate {
  0% {
    -webkit-transform: rotate(0deg);
            transform: rotate(0deg);
  }
  100% {
    -webkit-transform: rotate(360deg);
            transform: rotate(360deg);
  }
}
@keyframes rotate {
  0% {
    -webkit-transform: rotate(0deg);
            transform: rotate(0deg);
  }
  100% {
    -webkit-transform: rotate(360deg);
            transform: rotate(360deg);
  }
}
</style>



<g clip-path="url(#clip0_202_817)">
<circle cx="217.961" cy="217.5" r="58.5" fill="url(#paint0_linear_202_817)"/>
<g opacity="0.8" class="anim-eco">
<path d="M97.6403 332.911C161.126 399.35 266.452 401.745 332.891 338.259C399.33 274.772 401.724 169.447 338.238 103.008C274.752 36.5687 169.427 34.1746 102.988 97.6606C36.5484 161.147 34.1543 266.472 97.6403 332.911Z" stroke="url(#paint1_linear_202_817)" stroke-miterlimit="10"/>
<path d="M85.0529 344.939C155.182 418.33 271.528 420.975 344.919 350.846C418.31 280.717 420.955 164.371 350.826 90.9802C280.697 17.589 164.351 14.9445 90.9598 85.0733C17.5686 155.202 14.924 271.548 85.0529 344.939Z" stroke="url(#paint2_linear_202_817)" stroke-miterlimit="10"/>
<path d="M355.903 362.34C276.188 438.512 149.82 435.639 73.6484 355.925C-101.695 157.206 171.85 -104.084 362.321 80.0836C438.492 159.798 435.618 286.169 355.903 362.34V362.34Z" stroke="url(#paint3_linear_202_817)" stroke-width="0.75" stroke-miterlimit="10" stroke-dasharray="8 8"/>
<path d="M61.2861 366.803C143.735 453.087 280.519 456.196 366.803 373.748C453.087 291.299 456.196 154.515 373.748 68.2308C291.299 -18.0531 154.515 -21.1623 68.2307 61.2862C-18.0532 143.735 -21.1624 280.519 61.2861 366.803Z" stroke="url(#paint4_linear_202_817)" stroke-width="0.75" stroke-miterlimit="10"/>
</g>
</g>
<defs>
<linearGradient id="paint0_linear_202_817" x1="249.275" y1="152.325" x2="179.973" y2="280.005" gradientUnits="userSpaceOnUse">
<stop stop-color="#11AA7D"/>
<stop offset="0.65625" stop-color="#19266D"/>
<stop offset="1" stop-color="#16194D"/>
</linearGradient>
<linearGradient id="paint1_linear_202_817" x1="296.68" y1="142.718" x2="97.6403" y2="332.911" gradientUnits="userSpaceOnUse">
<stop stop-opacity="0"/>
<stop offset="1" stop-color="#68F7AA"/>
</linearGradient>
<linearGradient id="paint2_linear_202_817" x1="304.92" y1="134.846" x2="85.0529" y2="344.939" gradientUnits="userSpaceOnUse">
<stop stop-opacity="0"/>
<stop offset="1" stop-color="#68F7AA"/>
</linearGradient>
<linearGradient id="paint3_linear_202_817" x1="312.824" y1="128.11" x2="74.0128" y2="356.306" gradientUnits="userSpaceOnUse">
<stop stop-opacity="0"/>
<stop offset="1" stop-color="#68F7AA"/>
</linearGradient>
<linearGradient id="paint4_linear_202_817" x1="319.777" y1="119.802" x2="61.2862" y2="366.803" gradientUnits="userSpaceOnUse">
<stop stop-opacity="0"/>
<stop offset="1" stop-color="#68F7AA"/>
</linearGradient>
<clipPath id="clip0_202_817">
<rect width="436" height="436" fill="white"/>
</clipPath>
</defs>
</svg>
