<svg width="142" height="33" viewBox="0 0 142 33" fill="none" xmlns="http://www.w3.org/2000/svg">
<path d="M26.1378 0.0708264C25.2591 -0.0715514 24.3587 0.00949127 23.5196 0.306489C22.6805 0.603486 21.9295 1.10689 21.336 1.77033C20.2031 3.04026 19.8506 4.69355 20.1227 6.35027C20.3691 7.8444 20.696 9.36078 20.7696 10.8001C20.8725 12.968 20.5426 15.1347 19.7993 17.1737C19.1268 19.0187 18.1685 20.4495 16.115 20.7661C15.9627 20.7901 15.4082 20.8072 15.2508 20.8158C15.0934 20.8243 14.5954 20.7918 14.4414 20.7678C12.3879 20.4512 11.421 19.0204 10.7502 17.1635C10.0069 15.1244 9.67706 12.9578 9.77994 10.7899C9.85352 9.35565 10.1804 7.83756 10.4268 6.34C10.6989 4.68329 10.3464 3.02999 9.21351 1.76006C8.61807 1.09712 7.86526 0.594849 7.02455 0.299618C6.18385 0.00438669 5.28233 -0.0742973 4.40319 0.0708264C1.76958 0.50041 0.0155548 2.8383 0.000153545 5.29086C-0.00719597 6.23583 0.249431 7.16409 0.741124 7.97105C1.56081 9.32313 2.90585 10.3089 4.07977 11.3324C4.85668 12.017 6.20001 13.9595 6.85884 16.0647C7.25756 17.3397 7.5827 18.6319 7.90441 19.9361C8.35618 21.7537 8.97736 25.7688 9.38635 27.5915C10.2026 31.2404 12.701 32.0671 15.2046 32.1509H15.2936C17.7971 32.0671 20.3366 31.2387 21.1529 27.5898C21.5602 25.7671 22.1796 21.7502 22.6348 19.9343C22.9583 18.637 23.2817 17.338 23.6804 16.063C24.3392 13.9578 25.6826 12.0084 26.4595 11.3307C27.6334 10.3038 28.9767 9.32141 29.7981 7.96934C30.2898 7.16237 30.5464 6.23412 30.5391 5.28915C30.5254 2.83145 28.7782 0.491852 26.1378 0.0708264Z" fill="white"/>
<path d="M62.3793 6.54927L55.1977 25.9459H51.5656L44.3564 6.54927H47.7134L53.3816 22.6806L59.0774 6.54927H62.3793Z" fill="white"/>
<path d="M78.8981 17.8802C78.8981 18.457 78.8614 18.978 78.788 19.4431H67.2038C67.2956 20.6711 67.745 21.6572 68.5521 22.4015C69.3592 23.1457 70.3498 23.5178 71.5238 23.5178C73.2115 23.5178 74.4038 22.8015 75.1009 21.3688H78.4853C78.0267 22.7829 77.1921 23.9458 75.9814 24.8574C74.789 25.7505 73.3032 26.1971 71.5238 26.1971C70.0747 26.1971 68.7722 25.8715 67.6166 25.2203C66.4793 24.5505 65.5804 23.6202 64.92 22.4294C64.278 21.22 63.957 19.8246 63.957 18.2431C63.957 16.6616 64.2688 15.2754 64.8925 14.0846C65.5345 12.8753 66.4242 11.945 67.5615 11.2938C68.7172 10.6426 70.038 10.317 71.5238 10.317C72.9546 10.317 74.2295 10.6333 75.3485 11.2659C76.4675 11.8985 77.3388 12.7915 77.9625 13.9451C78.5862 15.0801 78.8981 16.3918 78.8981 17.8802ZM75.6237 16.8755C75.6053 15.7034 75.1926 14.7638 74.3855 14.0567C73.5783 13.3497 72.5786 12.9962 71.3862 12.9962C70.304 12.9962 69.3776 13.3497 68.6071 14.0567C67.8367 14.7452 67.3781 15.6848 67.2313 16.8755H75.6237Z" fill="white"/>
<path d="M89.6344 10.317C90.8268 10.317 91.8907 10.5681 92.8262 11.0705C93.7801 11.5729 94.5231 12.3171 95.055 13.3032C95.587 14.2893 95.853 15.4801 95.853 16.8755V25.9459H92.7437V17.35C92.7437 15.9731 92.4043 14.9219 91.7256 14.1963C91.0469 13.452 90.1205 13.0799 88.9465 13.0799C87.7725 13.0799 86.837 13.452 86.1399 14.1963C85.4612 14.9219 85.1218 15.9731 85.1218 17.35V25.9459H81.985V10.5681H85.1218V12.3264C85.6354 11.6938 86.2866 11.2007 87.0754 10.8472C87.8826 10.4937 88.7356 10.317 89.6344 10.317Z" fill="white"/>
<path d="M106.43 26.1971C105 26.1971 103.706 25.8715 102.551 25.2203C101.395 24.5505 100.487 23.6202 99.8267 22.4294C99.1663 21.22 98.8361 19.8246 98.8361 18.2431C98.8361 16.6802 99.1754 15.294 99.8542 14.0846C100.533 12.8753 101.459 11.945 102.633 11.2938C103.807 10.6426 105.119 10.317 106.568 10.317C108.017 10.317 109.329 10.6426 110.503 11.2938C111.677 11.945 112.603 12.8753 113.282 14.0846C113.961 15.294 114.3 16.6802 114.3 18.2431C114.3 19.806 113.951 21.1921 113.254 22.4015C112.557 23.6109 111.603 24.5505 110.393 25.2203C109.2 25.8715 107.88 26.1971 106.43 26.1971ZM106.43 23.4341C107.238 23.4341 107.99 23.2387 108.687 22.848C109.402 22.4573 109.98 21.8712 110.42 21.0898C110.861 20.3083 111.081 19.3594 111.081 18.2431C111.081 17.1267 110.87 16.1871 110.448 15.4243C110.026 14.6428 109.466 14.0567 108.769 13.666C108.072 13.2753 107.32 13.0799 106.513 13.0799C105.706 13.0799 104.954 13.2753 104.257 13.666C103.578 14.0567 103.037 14.6428 102.633 15.4243C102.23 16.1871 102.028 17.1267 102.028 18.2431C102.028 19.899 102.441 21.1828 103.266 22.0945C104.11 22.9876 105.165 23.4341 106.43 23.4341Z" fill="white"/>
<path d="M135.754 10.317C136.946 10.317 138.01 10.5681 138.946 11.0705C139.9 11.5729 140.643 12.3171 141.175 13.3032C141.725 14.2893 142 15.4801 142 16.8755V25.9459H138.891V17.35C138.891 15.9731 138.551 14.9219 137.873 14.1963C137.194 13.452 136.268 13.0799 135.094 13.0799C133.92 13.0799 132.984 13.452 132.287 14.1963C131.608 14.9219 131.269 15.9731 131.269 17.35V25.9459H128.16V17.35C128.16 15.9731 127.82 14.9219 127.141 14.1963C126.463 13.452 125.536 13.0799 124.362 13.0799C123.188 13.0799 122.253 13.452 121.556 14.1963C120.877 14.9219 120.538 15.9731 120.538 17.35V25.9459H117.401V10.5681H120.538V12.3264C121.051 11.6938 121.703 11.2007 122.491 10.8472C123.28 10.4937 124.124 10.317 125.023 10.317C126.233 10.317 127.316 10.5774 128.27 11.0984C129.224 11.6194 129.957 12.3729 130.471 13.359C130.93 12.4287 131.645 11.6938 132.617 11.1542C133.589 10.596 134.635 10.317 135.754 10.317Z" fill="white"/>
</svg>
