<svg width="200" height="200" viewBox="0 0 200 200" fill="none" xmlns="http://www.w3.org/2000/svg">
<path fill-rule="evenodd" clip-rule="evenodd" d="M36 20H116.828L164 67.1716V182H36V20ZM40 24V178H160V68H116V24H40Z" fill="url(#paint0_linear_4204_217569)"/>
<path d="M91.6642 143.495L112.216 92.4951L108.506 91L87.9541 142L91.6642 143.495Z" fill="url(#paint1_linear_4204_217569)"/>
<path d="M129.373 118.092L113.563 133.902L116.392 136.73L135.03 118.092L116.392 99.454L113.563 102.282L129.373 118.092Z" fill="url(#paint2_linear_4204_217569)"/>
<path d="M69.6569 118.092L85.4665 102.282L82.6381 99.454L64 118.092L82.6381 136.73L85.4665 133.902L69.6569 118.092Z" fill="url(#paint3_linear_4204_217569)"/>
<defs>
<linearGradient id="paint0_linear_4204_217569" x1="164" y1="20" x2="-2.83597" y2="86.355" gradientUnits="userSpaceOnUse">
<stop stop-color="#11a97d"/>
<stop offset="1" stop-color="#858ED0" stop-opacity="0"/>
</linearGradient>
<linearGradient id="paint1_linear_4204_217569" x1="135.03" y1="91" x2="61.7832" y2="140.888" gradientUnits="userSpaceOnUse">
<stop stop-color="#11a97d"/>
<stop offset="1" stop-color="#11a97d" stop-opacity="0"/>
</linearGradient>
<linearGradient id="paint2_linear_4204_217569" x1="135.03" y1="91" x2="61.7832" y2="140.888" gradientUnits="userSpaceOnUse">
<stop stop-color="#11a97d"/>
<stop offset="1" stop-color="#11a97d" stop-opacity="0"/>
</linearGradient>
<linearGradient id="paint3_linear_4204_217569" x1="135.03" y1="91" x2="61.7832" y2="140.888" gradientUnits="userSpaceOnUse">
<stop stop-color="#11a97d"/>
<stop offset="1" stop-color="#11a97d" stop-opacity="0"/>
</linearGradient>
</defs>
</svg>
