<svg width="398" height="228" viewBox="0 0 398 228" fill="none" xmlns="http://www.w3.org/2000/svg">
<ellipse cx="206.227" cy="74.1287" rx="21.1727" ry="21.1839" fill="#2D00F7"/>
<ellipse cx="329.527" cy="165.095" rx="13.7" ry="13.7072" fill="#2D00F7"/>
<ellipse cx="198.755" cy="150.142" rx="21.1727" ry="21.1839" fill="#2D00F7" fill-opacity="0.6"/>
<ellipse cx="156.409" cy="196.248" rx="12.4545" ry="12.4611" fill="#2D00F7"/>
<ellipse cx="156.409" cy="33.0071" rx="12.4545" ry="12.4611" fill="#11A97C"/>
<ellipse cx="190.037" cy="57.9294" rx="12.4545" ry="12.4611" fill="#11A97C"/>
<ellipse cx="241.1" cy="101.543" rx="12.4545" ry="12.4611" fill="#11A97C"/>
<ellipse cx="187.546" cy="177.556" rx="12.4545" ry="12.4611" fill="#11A97C"/>
<ellipse cx="185.055" cy="101.544" rx="21.1727" ry="21.1839" fill="#11A97C" fill-opacity="0.5"/>
<ellipse cx="232.382" cy="143.911" rx="21.1727" ry="21.1839" fill="#11A97C"/>
<ellipse cx="24.9591" cy="80.9821" rx="16.8136" ry="16.8225" fill="#11A97C"/>
<g filter="url(#filter0_b_8972_35925)">
<path d="M194.956 9.62289C274.421 26.2601 296.753 76.5348 285.482 130.424C274.212 184.314 209.834 216.434 130.37 199.797C86.5195 190.616 130.329 154.19 141.6 100.3C152.87 46.4105 138.88 -2.11764 194.956 9.62289Z" fill="url(#paint0_radial_8972_35925)" fill-opacity="0.1"/>
<path d="M194.956 9.62289C274.421 26.2601 296.753 76.5348 285.482 130.424C274.212 184.314 209.834 216.434 130.37 199.797C86.5195 190.616 130.329 154.19 141.6 100.3C152.87 46.4105 138.88 -2.11764 194.956 9.62289Z" fill="url(#paint1_radial_8972_35925)" fill-opacity="0.79"/>
<path d="M194.905 9.8676C234.593 18.177 259.976 34.8775 274.036 56.1917C288.098 77.5064 290.863 103.475 285.238 130.373C274.008 184.065 209.822 216.177 130.421 199.553C119.487 197.263 114.117 193.296 112.277 187.876C110.426 182.424 112.105 175.405 115.546 166.908C117.556 161.946 120.149 156.516 122.958 150.632C124.957 146.447 127.066 142.032 129.152 137.393C134.162 126.249 139.021 113.849 141.844 100.351C144.619 87.0834 145.864 74.1419 146.998 62.356L147.055 61.7701C148.205 49.8191 149.263 39.0925 151.716 30.4183C154.168 21.7481 158.001 15.1731 164.668 11.4786C171.342 7.78057 180.911 6.93758 194.905 9.8676Z" stroke="url(#paint2_linear_8972_35925)" stroke-opacity="0.08" stroke-width="0.5"/>
</g>
<path d="M89.1056 106.078C94.4252 113.313 92.8753 123.494 85.6436 128.816C78.412 134.138 68.2372 132.588 62.9175 125.352C57.5979 118.117 61.1757 110.695 68.4073 105.372C75.6389 100.05 83.7859 98.8424 89.1056 106.078Z" fill="#2D00F7"/>
<g filter="url(#filter1_b_8972_35925)">
<path d="M102.264 101.381C95.6577 119.848 63.0276 125.051 44.5707 118.441C26.1138 111.831 16.507 91.5023 23.1134 73.0356C29.7197 54.569 50.0375 44.9571 68.4944 51.567C86.9513 58.1768 108.87 82.9147 102.264 101.381Z" fill="url(#paint3_radial_8972_35925)" fill-opacity="0.1"/>
<path d="M102.029 101.297C98.7679 110.412 89.062 116.297 77.8015 119.072C66.5501 121.845 53.8294 121.491 44.6549 118.205C26.3281 111.642 16.7889 91.4567 23.3487 73.1199C29.9086 54.7832 50.0834 45.2391 68.4102 51.8024C77.5847 55.0879 87.6407 62.8907 94.5777 72.1774C101.52 81.4718 105.29 92.182 102.029 101.297Z" stroke="url(#paint4_linear_8972_35925)" stroke-opacity="0.08" stroke-width="0.5"/>
</g>
<g filter="url(#filter2_b_8972_35925)">
<path d="M264.764 164.468C264.764 144.854 280.655 128.953 300.259 128.953C319.863 128.953 348.832 144.854 348.832 164.468C348.832 184.081 332.94 199.982 313.336 199.982C293.733 199.982 264.764 184.081 264.764 164.468Z" fill="url(#paint5_radial_8972_35925)" fill-opacity="0.1"/>
<path d="M264.764 164.468C264.764 144.854 280.655 128.953 300.259 128.953C319.863 128.953 348.832 144.854 348.832 164.468C348.832 184.081 332.94 199.982 313.336 199.982C293.733 199.982 264.764 184.081 264.764 164.468Z" fill="white" fill-opacity="0.03"/>
<path d="M265.014 164.468C265.014 144.992 280.794 129.203 300.259 129.203C310.004 129.203 322.099 133.159 331.759 139.564C341.426 145.973 348.582 154.786 348.582 164.468C348.582 183.944 332.802 199.732 313.336 199.732C303.592 199.732 291.496 195.776 281.837 189.372C272.17 182.962 265.014 174.149 265.014 164.468Z" stroke="url(#paint6_linear_8972_35925)" stroke-opacity="0.08" stroke-width="0.5"/>
</g>
<path d="M314.788 98.8112C307.756 93.2268 306.58 82.9965 312.162 75.9612C317.743 68.926 327.968 67.7498 335 73.3341C342.031 78.9185 340.526 87.02 334.945 94.0553C329.364 101.091 321.819 104.396 314.788 98.8112Z" fill="#11A97C"/>
<g filter="url(#filter3_b_8972_35925)">
<path d="M337.311 53.5535C344.048 64.7584 340.431 79.3059 329.232 86.0462C318.033 92.7866 303.493 89.1674 296.756 77.9625C290.02 66.7576 296.205 56.4814 307.404 49.741C318.603 43.0007 330.575 42.3487 337.311 53.5535Z" fill="url(#paint7_radial_8972_35925)" fill-opacity="0.1"/>
<path d="M337.311 53.5535C344.048 64.7584 340.431 79.3059 329.232 86.0462C318.033 92.7866 303.493 89.1674 296.756 77.9625C290.02 66.7576 296.205 56.4814 307.404 49.741C318.603 43.0007 330.575 42.3487 337.311 53.5535Z" fill="white" fill-opacity="0.03"/>
<path d="M337.097 53.6825C343.763 64.769 340.184 79.1629 329.103 85.832C318.023 92.5011 303.636 88.9202 296.971 77.8336C293.642 72.2979 293.513 67.0129 295.583 62.2777C297.659 57.5293 301.959 53.3097 307.533 49.9553C313.106 46.6008 318.847 44.7773 324.012 45.1672C329.163 45.5559 333.769 48.1468 337.097 53.6825Z" stroke="url(#paint8_linear_8972_35925)" stroke-opacity="0.08" stroke-width="0.5"/>
</g>
<g filter="url(#filter4_b_8972_35925)">
<path d="M388.91 98.999C393.537 106.696 391.053 116.689 383.36 121.319C375.667 125.949 365.679 123.463 361.052 115.766C356.424 108.069 360.673 101.01 368.366 96.38C376.058 91.7499 384.282 91.302 388.91 98.999Z" fill="url(#paint9_radial_8972_35925)" fill-opacity="0.1"/>
<path d="M388.91 98.999C393.537 106.696 391.053 116.689 383.36 121.319C375.667 125.949 365.679 123.463 361.052 115.766C356.424 108.069 360.673 101.01 368.366 96.38C376.058 91.7499 384.282 91.302 388.91 98.999Z" fill="white" fill-opacity="0.03"/>
<path d="M388.696 99.1279C393.252 106.707 390.805 116.546 383.231 121.105C375.656 125.664 365.822 123.216 361.266 115.637C358.992 111.856 358.906 108.252 360.317 105.023C361.735 101.781 364.674 98.8936 368.494 96.5943C372.315 94.295 376.242 93.0501 379.768 93.3162C383.28 93.5813 386.422 95.3462 388.696 99.1279Z" stroke="url(#paint10_linear_8972_35925)" stroke-opacity="0.08" stroke-width="0.5"/>
</g>
<g filter="url(#filter5_b_8972_35925)">
<path d="M35.2007 157.401C39.8283 165.098 37.3435 175.091 29.6507 179.721C21.9578 184.352 11.9701 181.865 7.3424 174.169C2.71473 166.472 6.96358 159.413 14.6564 154.782C22.3493 150.152 30.573 149.704 35.2007 157.401Z" fill="url(#paint11_radial_8972_35925)" fill-opacity="0.1"/>
<path d="M34.9865 157.53C39.543 165.109 37.0963 174.948 29.5218 179.507C21.9473 184.066 12.1132 181.618 7.5566 174.04C5.28293 170.258 5.19654 166.654 6.60822 163.426C8.02566 160.184 10.965 157.296 14.7852 154.997C18.6055 152.697 22.5326 151.452 26.0591 151.719C29.5713 151.984 32.7128 153.749 34.9865 157.53Z" stroke="url(#paint12_linear_8972_35925)" stroke-opacity="0.08" stroke-width="0.5"/>
</g>
<g filter="url(#filter6_b_8972_35925)">
<path d="M112.297 163.022C100.529 157.335 95.5968 143.179 101.281 131.405C106.966 119.63 121.114 114.696 132.882 120.383C144.65 126.071 145.096 138.058 139.411 149.833C133.727 161.607 124.065 168.709 112.297 163.022Z" fill="url(#paint13_radial_8972_35925)" fill-opacity="0.1"/>
<path d="M112.405 162.797C100.762 157.17 95.8819 143.164 101.506 131.514C107.131 119.863 121.129 114.981 132.773 120.609C138.587 123.418 141.587 127.77 142.445 132.867C143.305 137.978 142.015 143.864 139.186 149.724C136.357 155.584 132.551 160.254 128.015 162.757C123.491 165.252 118.219 165.607 112.405 162.797Z" stroke="url(#paint14_linear_8972_35925)" stroke-opacity="0.08" stroke-width="0.5"/>
</g>
<defs>
<filter id="filter0_b_8972_35925" x="97.2639" y="-6.14688" width="204.952" height="224.346" filterUnits="userSpaceOnUse" color-interpolation-filters="sRGB">
<feFlood flood-opacity="0" result="BackgroundImageFix"/>
<feGaussianBlur in="BackgroundImage" stdDeviation="7"/>
<feComposite in2="SourceAlpha" operator="in" result="effect1_backgroundBlur_8972_35925"/>
<feBlend mode="normal" in="SourceGraphic" in2="effect1_backgroundBlur_8972_35925" result="shape"/>
</filter>
<filter id="filter1_b_8972_35925" x="7.02744" y="35.4799" width="110.439" height="99.7038" filterUnits="userSpaceOnUse" color-interpolation-filters="sRGB">
<feFlood flood-opacity="0" result="BackgroundImageFix"/>
<feGaussianBlur in="BackgroundImage" stdDeviation="7"/>
<feComposite in2="SourceAlpha" operator="in" result="effect1_backgroundBlur_8972_35925"/>
<feBlend mode="normal" in="SourceGraphic" in2="effect1_backgroundBlur_8972_35925" result="shape"/>
</filter>
<filter id="filter2_b_8972_35925" x="250.764" y="114.953" width="112.068" height="99.0285" filterUnits="userSpaceOnUse" color-interpolation-filters="sRGB">
<feFlood flood-opacity="0" result="BackgroundImageFix"/>
<feGaussianBlur in="BackgroundImage" stdDeviation="7"/>
<feComposite in2="SourceAlpha" operator="in" result="effect1_backgroundBlur_8972_35925"/>
<feBlend mode="normal" in="SourceGraphic" in2="effect1_backgroundBlur_8972_35925" result="shape"/>
</filter>
<filter id="filter3_b_8972_35925" x="279.962" y="30.8651" width="74.739" height="72.5726" filterUnits="userSpaceOnUse" color-interpolation-filters="sRGB">
<feFlood flood-opacity="0" result="BackgroundImageFix"/>
<feGaussianBlur in="BackgroundImage" stdDeviation="7"/>
<feComposite in2="SourceAlpha" operator="in" result="effect1_backgroundBlur_8972_35925"/>
<feBlend mode="normal" in="SourceGraphic" in2="effect1_backgroundBlur_8972_35925" result="shape"/>
</filter>
<filter id="filter4_b_8972_35925" x="345.132" y="79.0307" width="60.1061" height="58.6181" filterUnits="userSpaceOnUse" color-interpolation-filters="sRGB">
<feFlood flood-opacity="0" result="BackgroundImageFix"/>
<feGaussianBlur in="BackgroundImage" stdDeviation="7"/>
<feComposite in2="SourceAlpha" operator="in" result="effect1_backgroundBlur_8972_35925"/>
<feBlend mode="normal" in="SourceGraphic" in2="effect1_backgroundBlur_8972_35925" result="shape"/>
</filter>
<filter id="filter5_b_8972_35925" x="-8.57703" y="137.433" width="60.1062" height="58.6181" filterUnits="userSpaceOnUse" color-interpolation-filters="sRGB">
<feFlood flood-opacity="0" result="BackgroundImageFix"/>
<feGaussianBlur in="BackgroundImage" stdDeviation="7"/>
<feComposite in2="SourceAlpha" operator="in" result="effect1_backgroundBlur_8972_35925"/>
<feBlend mode="normal" in="SourceGraphic" in2="effect1_backgroundBlur_8972_35925" result="shape"/>
</filter>
<filter id="filter6_b_8972_35925" x="84.9202" y="104.021" width="72.0379" height="74.998" filterUnits="userSpaceOnUse" color-interpolation-filters="sRGB">
<feFlood flood-opacity="0" result="BackgroundImageFix"/>
<feGaussianBlur in="BackgroundImage" stdDeviation="7"/>
<feComposite in2="SourceAlpha" operator="in" result="effect1_backgroundBlur_8972_35925"/>
<feBlend mode="normal" in="SourceGraphic" in2="effect1_backgroundBlur_8972_35925" result="shape"/>
</filter>
<radialGradient id="paint0_radial_8972_35925" cx="0" cy="0" r="1" gradientUnits="userSpaceOnUse" gradientTransform="translate(133.846 190.312) rotate(-33.6901) scale(162.977 287.753)">
<stop stop-color="#2D00F7"/>
<stop offset="1" stop-color="#11A97C"/>
</radialGradient>
<radialGradient id="paint1_radial_8972_35925" cx="0" cy="0" r="1" gradientUnits="userSpaceOnUse" gradientTransform="translate(169.186 19.5925) rotate(67.0673) scale(133.372 137.724)">
<stop offset="0.0777008" stop-color="white" stop-opacity="0.2"/>
<stop offset="1" stop-color="white" stop-opacity="0"/>
</radialGradient>
<linearGradient id="paint2_linear_8972_35925" x1="212.869" y1="19.5925" x2="137.486" y2="193.636" gradientUnits="userSpaceOnUse">
<stop stop-color="#11A97C" stop-opacity="0"/>
<stop offset="1" stop-color="#2D00F7"/>
</linearGradient>
<radialGradient id="paint3_radial_8972_35925" cx="0" cy="0" r="1" gradientUnits="userSpaceOnUse" gradientTransform="translate(35.4421 51.0876) rotate(65.6021) scale(70.4783 124.326)">
<stop stop-color="#2D00F7"/>
<stop offset="1" stop-color="#11A97C"/>
</radialGradient>
<linearGradient id="paint4_linear_8972_35925" x1="43.5331" y1="52.0599" x2="76.5659" y2="119.959" gradientUnits="userSpaceOnUse">
<stop stop-color="white"/>
<stop offset="1" stop-color="#2D00F7"/>
</linearGradient>
<radialGradient id="paint5_radial_8972_35925" cx="0" cy="0" r="1" gradientUnits="userSpaceOnUse" gradientTransform="translate(344.617 189.289) rotate(-134.088) scale(70.4666 124.346)">
<stop stop-color="#2D00F7"/>
<stop offset="1" stop-color="#11A97C"/>
</radialGradient>
<linearGradient id="paint6_linear_8972_35925" x1="289.05" y1="132.692" x2="337.652" y2="188.118" gradientUnits="userSpaceOnUse">
<stop stop-color="white"/>
<stop offset="1" stop-color="#2D00F7"/>
</linearGradient>
<radialGradient id="paint7_radial_8972_35925" cx="0" cy="0" r="1" gradientUnits="userSpaceOnUse" gradientTransform="translate(292.446 66.1873) rotate(16.5298) scale(40.896 71.9482)">
<stop stop-color="#2D00F7"/>
<stop offset="1" stop-color="#11A97C"/>
</radialGradient>
<linearGradient id="paint8_linear_8972_35925" x1="336.172" y1="58.0987" x2="296.544" y2="76.2311" gradientUnits="userSpaceOnUse">
<stop stop-color="white"/>
<stop offset="1" stop-color="#2D00F7"/>
</linearGradient>
<radialGradient id="paint9_radial_8972_35925" cx="0" cy="0" r="1" gradientUnits="userSpaceOnUse" gradientTransform="translate(358.091 107.677) rotate(16.5298) scale(28.0925 49.4231)">
<stop stop-color="#2D00F7"/>
<stop offset="1" stop-color="#11A97C"/>
</radialGradient>
<linearGradient id="paint10_linear_8972_35925" x1="388.127" y1="102.121" x2="360.906" y2="114.577" gradientUnits="userSpaceOnUse">
<stop stop-color="white"/>
<stop offset="1" stop-color="#2D00F7"/>
</linearGradient>
<radialGradient id="paint11_radial_8972_35925" cx="0" cy="0" r="1" gradientUnits="userSpaceOnUse" gradientTransform="translate(4.38141 166.08) rotate(16.5298) scale(28.0925 49.4231)">
<stop stop-color="#2D00F7"/>
<stop offset="1" stop-color="#11A97C"/>
</radialGradient>
<linearGradient id="paint12_linear_8972_35925" x1="6.63162" y1="163.859" x2="36.0107" y2="169.935" gradientUnits="userSpaceOnUse">
<stop stop-color="white"/>
<stop offset="1" stop-color="#2D00F7"/>
</linearGradient>
<radialGradient id="paint13_radial_8972_35925" cx="0" cy="0" r="1" gradientUnits="userSpaceOnUse" gradientTransform="translate(142.931 127.877) rotate(163.325) scale(40.896 71.9481)">
<stop stop-color="#2D00F7"/>
<stop offset="1" stop-color="#11A97C"/>
</radialGradient>
<linearGradient id="paint14_linear_8972_35925" x1="141.959" y1="132.377" x2="101.318" y2="148.375" gradientUnits="userSpaceOnUse">
<stop stop-color="white"/>
<stop offset="1" stop-color="#2D00F7"/>
</linearGradient>
</defs>
</svg>
