<svg viewBox="0 0 36 36" fill="none" xmlns="http://www.w3.org/2000/svg"><g filter="url(#a)"><rect width="36" height="36" rx="18" fill="#fff" fill-opacity=".17"/><circle cx="18" cy="18" r="17.5" fill="url(#b)" stroke="#68F7AA"/><mask id="d" style="mask-type:alpha" maskUnits="userSpaceOnUse" x="0" y="0" width="36" height="36"><circle cx="18" cy="18" r="17.5" fill="url(#c)" stroke="#68F7AA"/></mask><g mask="url(#d)"><g filter="url(#e)"><path d="M8.822 6.482c9.111-1.556 18.923 4.241 21.915 12.95 2.992 8.708-1.969 17.03-11.08 18.586-9.111 1.556-18.923-4.242-21.915-12.95C-5.25 16.36-.29 8.038 8.822 6.482Z" fill="url(#f)"/><path d="M8.906 6.975c8.871-1.516 18.446 4.144 21.358 12.62 2.891 8.414-1.881 16.425-10.691 17.93-8.871 1.515-18.446-4.144-21.358-12.62C-4.677 16.492.096 8.48 8.905 6.976Z" stroke="#68F7AA"/></g><g filter="url(#g)"><path d="M30.576 24.807c-7.113 5.904-18.509 5.789-25.454-.257-6.946-6.046-6.81-15.732.302-21.636 7.113-5.904 18.509-5.788 25.454.257 6.946 6.046 6.81 15.733-.302 21.636Z" fill="url(#h)"/><path d="M30.256 24.422c-6.925 5.748-18.047 5.635-24.806-.25-6.711-5.84-6.583-15.165.294-20.873 6.925-5.748 18.047-5.634 24.806.25 6.711 5.84 6.583 15.165-.294 20.873Z" stroke="#68F7AA"/></g></g><path d="M10 26v-1.829c0-2.285 2.823-3.2 6.118-5.028-1.352-1.86-1.883-3.596-1.883-5.486C14.235 11.637 15.921 10 18 10c2.08 0 3.765 1.637 3.765 3.657 0 1.89-.531 3.626-1.883 5.486C23.176 20.97 26 21.886 26 24.17V26H10Z" fill="#fff"/></g><defs><linearGradient id="b" x1="2.935" y1="4.891" x2="29.739" y2="32.478" gradientUnits="userSpaceOnUse"><stop stop-color="#649A66"/><stop offset="1" stop-color="#2B4CCF"/></linearGradient><linearGradient id="c" x1="2.935" y1="4.891" x2="29.739" y2="32.478" gradientUnits="userSpaceOnUse"><stop stop-color="#649A66"/><stop offset="1" stop-color="#2B4CCF"/></linearGradient><linearGradient id="f" x1="9.721" y1="36.54" x2="14.348" y2="23.022" gradientUnits="userSpaceOnUse"><stop stop-color="#8FEBFF"/><stop offset="1" stop-color="#2B4CCF" stop-opacity="0"/></linearGradient><linearGradient id="h" x1="16.235" y1="1.578" x2="15.952" y2="29.599" gradientUnits="userSpaceOnUse"><stop stop-color="#49F150"/><stop offset="1" stop-color="#2B4CCF" stop-opacity="0"/></linearGradient><filter id="a" x="-25" y="-25" width="86" height="86" filterUnits="userSpaceOnUse" color-interpolation-filters="sRGB"><feFlood flood-opacity="0" result="BackgroundImageFix"/><feGaussianBlur in="BackgroundImage" stdDeviation="12.5"/><feComposite in2="SourceAlpha" operator="in" result="effect1_backgroundBlur_10696_5392"/><feBlend in="SourceGraphic" in2="effect1_backgroundBlur_10696_5392" result="shape"/></filter><filter id="e" x="-13.129" y="-3.771" width="54.736" height="52.041" filterUnits="userSpaceOnUse" color-interpolation-filters="sRGB"><feFlood flood-opacity="0" result="BackgroundImageFix"/><feBlend in="SourceGraphic" in2="BackgroundImageFix" result="shape"/><feGaussianBlur stdDeviation="5" result="effect1_foregroundBlur_10696_5392"/></filter><filter id="g" x="-10" y="-11.44" width="56" height="50.6" filterUnits="userSpaceOnUse" color-interpolation-filters="sRGB"><feFlood flood-opacity="0" result="BackgroundImageFix"/><feBlend in="SourceGraphic" in2="BackgroundImageFix" result="shape"/><feGaussianBlur stdDeviation="5" result="effect1_foregroundBlur_10696_5392"/></filter></defs></svg>
