<svg width="32" height="32" viewBox="0 0 40 40" fill="none" xmlns="http://www.w3.org/2000/svg">
<path d="M20 40C31.0457 40 40 31.0457 40 20C40 8.9543 31.0457 0 20 0C8.9543 0 0 8.9543 0 20C0 31.0457 8.9543 40 20 40Z" fill="white"/>
<path d="M27.8288 10.1019C27.1959 9.99938 26.5475 10.0577 25.9431 10.2716C25.3387 10.4855 24.7979 10.848 24.3704 11.3258C23.5545 12.2403 23.3006 13.4309 23.4966 14.6239C23.6741 15.6999 23.9095 16.7918 23.9625 17.8284C24.0366 19.3895 23.799 20.9498 23.2636 22.4181C22.7793 23.7554 22.0854 24.7857 20.6052 25.0137C20.4955 25.031 20.0962 25.0433 19.9828 25.0495C19.8694 25.0556 19.5107 25.0322 19.3998 25.015C17.9208 24.787 17.2245 23.7566 16.7413 22.4194C16.206 20.951 15.9684 19.3907 16.0425 17.8296C16.0955 16.7968 16.3309 15.7036 16.5084 14.6251C16.7044 13.4321 16.4505 12.2415 15.6346 11.327C15.2071 10.8492 14.6663 10.4867 14.0619 10.2729C13.4575 10.059 12.8091 10.0006 12.1762 10.1031C10.277 10.415 9.01367 12.0973 9.00011 13.8659C8.99482 14.5464 9.17965 15.2149 9.53378 15.796C10.1241 16.7697 11.0929 17.4796 11.9384 18.2166C12.4979 18.7096 13.4654 20.1084 13.9399 21.6244C14.2271 22.5426 14.4612 23.4731 14.693 24.4123C15.0183 25.7212 15.4657 28.6126 15.7603 29.9252C16.3482 32.5528 18.1476 33.1481 19.9507 33.2085H20.0148C21.8179 33.1481 23.6469 32.5516 24.2348 29.924C24.5282 28.6114 24.9743 25.7187 25.3022 24.4111C25.5351 23.4768 25.7681 22.5414 26.0552 21.6232C26.5297 20.1072 27.4972 18.7034 28.0568 18.2154C28.9023 17.4759 29.8698 16.7684 30.4614 15.7948C30.817 15.2145 31.0035 14.5465 30.9999 13.8659C30.9889 12.0948 29.7256 10.415 27.8288 10.1019Z" fill="black"/>
</svg>
