<svg width="100" height="100" viewBox="0 0 100 100" fill="none" xmlns="http://www.w3.org/2000/svg">
    <path d="M65.5084 27.0974C64.2548 26.8943 62.9703 27.0099 61.7731 27.4336C60.576 27.8572 59.5046 28.5753 58.6579 29.5217C57.0416 31.3332 56.5387 33.6916 56.9269 36.0549C57.2785 38.1863 57.7448 40.3493 57.8497 42.4025C57.9965 45.495 57.5259 48.5857 56.4655 51.4943C55.506 54.1432 54.1315 56.1842 51.1994 56.6359C50.9821 56.6701 50.1911 56.6945 49.9665 56.7067C49.7419 56.7189 49.0314 56.6725 48.8117 56.6384C45.882 56.1867 44.5026 54.1457 43.5456 51.4968C42.4851 48.5881 42.0145 45.4974 42.1613 42.405C42.2663 40.3591 42.7326 38.1936 43.0842 36.0574C43.4723 33.6941 42.9694 31.3357 41.3532 29.5242C40.5064 28.5778 39.4351 27.8597 38.2379 27.436C37.0408 27.0124 35.7562 26.8968 34.5026 27.0999C30.7404 27.7175 28.238 31.05 28.2112 34.5535C28.2007 35.9014 28.5668 37.2256 29.2683 38.3767C30.4377 40.3054 32.3567 41.7116 34.0315 43.1716C35.1398 44.1482 37.0563 46.9191 37.9963 49.9221C38.5651 51.7409 39.029 53.5842 39.488 55.4445C40.1325 58.0373 41.0187 63.7648 41.6022 66.3649C42.7668 71.5699 46.3312 72.7491 49.903 72.8688H50.0299C53.6017 72.7491 57.2248 71.5675 58.3893 66.3624C58.9704 63.7624 59.8541 58.0324 60.5036 55.4421C60.965 53.5915 61.4264 51.7385 61.9952 49.9196C62.9352 46.9167 64.8517 44.1359 65.9601 43.1691C67.6349 41.7043 69.5514 40.3029 70.7233 38.3742C71.4277 37.2248 71.7972 35.9015 71.7901 34.5535C71.7682 31.0452 69.2657 27.7175 65.5084 27.0974Z" fill="white"/>
    <defs>
        <linearGradient id="paint0_linear_10559_34097" x1="76.7635" y1="-5.70539" x2="17.5311" y2="103.423" gradientUnits="userSpaceOnUse">
            <stop stop-color="#11AA7D"/>
            <stop offset="0.65625" stop-color="#19266D"/>
            <stop offset="1" stop-color="#16194D"/>
        </linearGradient>
    </defs>
</svg>
