<svg width="8" height="10" viewBox="0 0 8 10" fill="none" xmlns="http://www.w3.org/2000/svg">
<path d="M5.31622 5C6.74366 3.92925 7.60159 2.52849 7.87046 0.819088L8 0H0L0.129545 0.816714C0.398411 2.52612 1.25634 3.92688 2.68378 4.99763C1.25634 6.07075 0.398411 7.47151 0.129545 9.18091L0 10H8L7.87046 9.18091C7.60159 7.47151 6.74366 6.07075 5.31622 5ZM1.77207 1.42213H6.22793C5.86373 2.54273 5.12802 3.44729 4.00122 4.16667C2.87443 3.44729 2.13871 2.54273 1.77452 1.42213H1.77207ZM4.00367 5L3.99878 5.00712L3.99389 5L3.99878 4.99288L4.00367 5ZM1.77207 8.57787C2.13627 7.45726 2.87198 6.55271 3.99878 5.83333C5.12557 6.55271 5.86129 7.45726 6.22548 8.57787H1.77207Z" fill="#11A97D"/>
</svg>
