<svg width="1103" height="445" viewBox="0 0 1103 445" fill="none" xmlns="http://www.w3.org/2000/svg">
<path d="M440 40C440 33.3726 445.373 28 452 28H746C752.627 28 758 33.3726 758 40V334C758 340.627 752.627 346 746 346H452C445.373 346 440 340.627 440 334V40Z" fill="#2A2A2A"/>
<path d="M440 40C440 33.3726 445.373 28 452 28H746C752.627 28 758 33.3726 758 40V74H440V40Z" fill="#212121"/>
<circle cx="590" cy="94" r="15" fill="#212121"/>
<path fill-rule="evenodd" clip-rule="evenodd" d="M666 88H658V100H666V88ZM656 86H658H670H672V88V100V102H670H658H656V100V88V86Z" fill="white"/>
<rect x="619" y="87" width="11" height="2" fill="white"/>
<rect x="619" y="91" width="11" height="2" fill="white"/>
<rect x="619" y="95" width="7" height="2" fill="white"/>
<circle cx="631" cy="98" r="3" fill="white"/>
<rect x="632" y="87" width="2" height="11" fill="white"/>
<rect x="633" y="87" width="3" height="2" fill="white"/>
<path fill-rule="evenodd" clip-rule="evenodd" d="M590 85C591.105 85 592 85.8954 592 87V87.5C592 87.7761 592.224 88 592.5 88H595C595.552 88 596 88.4477 596 89V92.5C596 92.7761 596.224 93 596.5 93H597C598.105 93 599 93.8954 599 95C599 96.1046 598.105 97 597 97H596.5C596.224 97 596 97.2239 596 97.5V100C596 100.552 595.552 101 595 101H592.5C592.224 101 592 100.776 592 100.5V100C592 98.8954 591.105 98 590 98C588.895 98 588 98.8954 588 100V100.5C588 100.776 587.776 101 587.5 101H584C583.448 101 583 100.552 583 100V97.5C583 97.2239 583.224 97 583.5 97H584C585.105 97 586 96.1046 586 95C586 93.8954 585.105 93 584 93H583.5C583.224 93 583 92.7761 583 92.5V89C583 88.4477 583.448 88 584 88H587.5C587.776 88 588 87.7761 588 87.5V87C588 85.8954 588.895 85 590 85Z" fill="white"/>
<path d="M440 79H512C520.284 79 527 85.7157 527 94C527 102.284 520.284 109 512 109H440V79Z" fill="#212121"/>
<circle cx="734" cy="88" r="2" fill="white"/>
<circle cx="734" cy="94" r="2" fill="white"/>
<circle cx="734" cy="100" r="2" fill="white"/>
<path d="M729.465 53.5355L734.071 58.1421L738.678 53.5355" stroke="white" stroke-width="2" stroke-linecap="round" stroke-linejoin="round"/>
<mask id="path-17-inside-1_9_2" fill="white">
<path fill-rule="evenodd" clip-rule="evenodd" d="M711 94C711 100.627 705.627 106 699 106C692.373 106 687 100.627 687 94C687 87.3726 692.373 82 699 82C705.627 82 711 87.3726 711 94ZM703.025 89C703.025 91.2091 701.234 93 699.025 93C696.816 93 695.025 91.2091 695.025 89C695.025 86.7909 696.816 85 699.025 85C701.234 85 703.025 86.7909 703.025 89ZM699.025 95C695.94 95 693.126 96.1646 691 98.0782C692.487 100.999 695.523 103 699.025 103C702.528 103 705.563 100.999 707.05 98.0782C704.924 96.1646 702.111 95 699.025 95Z"/>
</mask>
<path fill-rule="evenodd" clip-rule="evenodd" d="M711 94C711 100.627 705.627 106 699 106C692.373 106 687 100.627 687 94C687 87.3726 692.373 82 699 82C705.627 82 711 87.3726 711 94ZM703.025 89C703.025 91.2091 701.234 93 699.025 93C696.816 93 695.025 91.2091 695.025 89C695.025 86.7909 696.816 85 699.025 85C701.234 85 703.025 86.7909 703.025 89ZM699.025 95C695.94 95 693.126 96.1646 691 98.0782C692.487 100.999 695.523 103 699.025 103C702.528 103 705.563 100.999 707.05 98.0782C704.924 96.1646 702.111 95 699.025 95Z" fill="white"/>
<path d="M691 98.0782L690.331 97.3349L689.761 97.8482L690.109 98.5319L691 98.0782ZM707.05 98.0782L707.941 98.5319L708.29 97.8482L707.719 97.3349L707.05 98.0782ZM699 107C706.18 107 712 101.18 712 94H710C710 100.075 705.075 105 699 105V107ZM686 94C686 101.18 691.82 107 699 107V105C692.925 105 688 100.075 688 94H686ZM699 81C691.82 81 686 86.8203 686 94H688C688 87.9249 692.925 83 699 83V81ZM712 94C712 86.8203 706.18 81 699 81V83C705.075 83 710 87.9249 710 94H712ZM699.025 94C701.787 94 704.025 91.7614 704.025 89H702.025C702.025 90.6569 700.682 92 699.025 92V94ZM694.025 89C694.025 91.7614 696.264 94 699.025 94V92C697.368 92 696.025 90.6569 696.025 89H694.025ZM699.025 84C696.264 84 694.025 86.2386 694.025 89H696.025C696.025 87.3431 697.368 86 699.025 86V84ZM704.025 89C704.025 86.2386 701.787 84 699.025 84V86C700.682 86 702.025 87.3431 702.025 89H704.025ZM691.669 98.8214C693.619 97.0667 696.196 96 699.025 96V94C695.683 94 692.633 95.2625 690.331 97.3349L691.669 98.8214ZM699.025 102C695.913 102 693.214 100.223 691.891 97.6244L690.109 98.5319C691.76 101.775 695.132 104 699.025 104V102ZM706.159 97.6244C704.836 100.223 702.137 102 699.025 102V104C702.918 104 706.29 101.775 707.941 98.5319L706.159 97.6244ZM699.025 96C701.854 96 704.432 97.0667 706.381 98.8214L707.719 97.3349C705.417 95.2625 702.367 94 699.025 94V96Z" fill="white" mask="url(#path-17-inside-1_9_2)"/>
<g filter="url(#filter0_d_9_2)">
<rect x="287" y="115" width="318" height="290" rx="12" fill="#2A2A2A"/>
<rect x="287.5" y="115.5" width="317" height="289" rx="11.5" stroke="#3B3B3B"/>
</g>
<rect x="305" y="209" width="218" height="10" rx="5" fill="white" fill-opacity="0.1"/>
<circle cx="314" cy="244" r="9" fill="url(#paint0_linear_9_2)"/>
<mask id="mask0_9_2" style="mask-type:alpha" maskUnits="userSpaceOnUse" x="305" y="235" width="18" height="18">
<circle cx="314" cy="244" r="9" fill="url(#paint1_linear_9_2)"/>
</mask>
<g mask="url(#mask0_9_2)">
<g filter="url(#filter1_f_9_2)">
<path d="M309.41 238.241C313.966 237.463 318.872 240.362 320.368 244.716C321.864 249.07 319.384 253.231 314.828 254.009C310.272 254.787 305.367 251.888 303.87 247.534C302.374 243.18 304.855 239.019 309.41 238.241Z" fill="url(#paint2_linear_9_2)"/>
</g>
<g filter="url(#filter2_f_9_2)">
<path d="M320.288 247.403C316.732 250.355 311.034 250.297 307.561 247.275C304.088 244.252 304.156 239.408 307.712 236.457C311.268 233.505 316.966 233.562 320.439 236.585C323.912 239.608 323.844 244.451 320.288 247.403Z" fill="url(#paint3_linear_9_2)"/>
</g>
</g>
<path d="M318.004 238.4C317.68 238.35 317.348 238.378 317.039 238.482C316.73 238.586 316.453 238.762 316.235 238.994C315.817 239.439 315.688 240.017 315.788 240.597C315.879 241.12 315.999 241.65 316.026 242.154C316.064 242.913 315.942 243.671 315.669 244.384C315.421 245.03 315.068 245.531 314.311 245.641C314.255 245.65 314.051 245.656 313.993 245.659C313.935 245.662 313.752 245.65 313.695 245.642C312.938 245.531 312.582 245.03 312.335 244.381C312.061 243.667 311.94 242.909 311.978 242.151C312.005 241.649 312.125 241.117 312.216 240.593C312.316 240.014 312.186 239.435 311.769 238.991C311.55 238.759 311.272 238.583 310.963 238.48C310.653 238.377 310.321 238.349 309.997 238.4C309.027 238.55 308.381 239.368 308.375 240.226C308.372 240.557 308.467 240.882 308.648 241.164C308.95 241.637 309.445 241.982 309.878 242.34C310.164 242.58 310.659 243.26 310.902 243.996C311.049 244.442 311.168 244.895 311.287 245.351C311.453 245.987 311.682 247.392 311.833 248.03C312.133 249.306 313.054 249.596 313.976 249.625L314.009 249.625C314.931 249.596 315.867 249.306 316.167 248.029C316.317 247.391 316.546 245.986 316.713 245.35C316.832 244.896 316.951 244.442 317.098 243.996C317.341 243.259 317.836 242.577 318.122 242.34C318.555 241.98 319.049 241.637 319.352 241.164C319.533 240.881 319.628 240.556 319.625 240.226C319.62 239.366 318.976 238.547 318.004 238.4Z" fill="white"/>
<rect x="305" y="133" width="94" height="12" rx="6" fill="white" fill-opacity="0.1"/>
<rect x="305" y="168" width="260" height="10" rx="5" fill="white" fill-opacity="0.1"/>
<rect x="305" y="188" width="260" height="10" rx="5" fill="white" fill-opacity="0.1"/>
<rect x="341" y="378" width="201" height="10" rx="5" fill="white" fill-opacity="0.1"/>
<rect x="341" y="281" width="141" height="10" rx="5" fill="white" fill-opacity="0.1"/>
<rect x="341" y="323" width="141" height="10" rx="5" fill="white" fill-opacity="0.1"/>
<circle cx="585.5" cy="237.5" r="1.5" fill="white"/>
<circle cx="585.5" cy="243.5" r="1.5" fill="white"/>
<circle cx="585.5" cy="249.5" r="1.5" fill="white"/>
<circle cx="585.5" cy="279.5" r="1.5" fill="white"/>
<circle cx="585.5" cy="285.5" r="1.5" fill="white"/>
<circle cx="585.5" cy="291.5" r="1.5" fill="white"/>
<circle cx="585.5" cy="321.5" r="1.5" fill="white"/>
<circle cx="585.5" cy="327.5" r="1.5" fill="white"/>
<circle cx="585.5" cy="333.5" r="1.5" fill="white"/>
<path fill-rule="evenodd" clip-rule="evenodd" d="M538.5 238H545.5V239.5H544.5V244L546 245.5V246.5H542.5V249.5C542.5 249.776 542.276 250 542 250C541.768 250 541.573 249.842 541.517 249.628C541.506 249.587 541.5 249.544 541.5 249.5V246.5H538V245.5L539.5 244V239.5H538.5V238Z" fill="#377BFF"/>
<path d="M545.5 288H542.5H542H541.5H538.5V287.707L539.854 286.354L540 286.207V286V281.5V281H539.5H539V280.5H545V281H544.5H544V281.5V286V286.207L544.146 286.354L545.5 287.707V288Z" stroke="white"/>
<path d="M545.5 330H542.5H542H541.5H538.5V329.707L539.854 328.354L540 328.207V328V323.5V323H539.5H539V322.5H545V323H544.5H544V323.5V328V328.207L544.146 328.354L545.5 329.707V330Z" stroke="white"/>
<path d="M345.368 247.489L348.301 239.047H349.729L346.045 249H345.026L345.368 247.489ZM342.627 239.047L345.532 247.489L345.895 249H344.876L341.198 239.047H342.627ZM353.896 249.137C353.382 249.137 352.914 249.05 352.495 248.877C352.08 248.699 351.723 248.451 351.422 248.132C351.126 247.813 350.898 247.435 350.738 246.997C350.579 246.56 350.499 246.081 350.499 245.562V245.274C350.499 244.673 350.588 244.137 350.766 243.668C350.943 243.194 351.185 242.793 351.49 242.465C351.796 242.137 352.142 241.888 352.529 241.72C352.917 241.551 353.318 241.467 353.732 241.467C354.261 241.467 354.717 241.558 355.1 241.74C355.487 241.923 355.804 242.178 356.05 242.506C356.296 242.829 356.478 243.212 356.597 243.654C356.715 244.092 356.774 244.57 356.774 245.09V245.657H351.251V244.625H355.51V244.529C355.492 244.201 355.423 243.882 355.305 243.572C355.191 243.262 355.008 243.007 354.758 242.807C354.507 242.606 354.165 242.506 353.732 242.506C353.445 242.506 353.181 242.567 352.939 242.69C352.698 242.809 352.491 242.987 352.317 243.224C352.144 243.461 352.01 243.75 351.914 244.092C351.818 244.434 351.771 244.828 351.771 245.274V245.562C351.771 245.912 351.818 246.243 351.914 246.553C352.014 246.858 352.158 247.127 352.345 247.359C352.536 247.592 352.766 247.774 353.035 247.906C353.309 248.038 353.618 248.104 353.965 248.104C354.411 248.104 354.79 248.013 355.1 247.831C355.41 247.649 355.681 247.405 355.913 247.1L356.679 247.708C356.519 247.95 356.316 248.18 356.07 248.398C355.824 248.617 355.521 248.795 355.161 248.932C354.806 249.068 354.384 249.137 353.896 249.137ZM359.766 243.183V249H358.501V241.604H359.697L359.766 243.183ZM359.465 245.021L358.938 245.001C358.943 244.495 359.018 244.028 359.164 243.6C359.31 243.167 359.515 242.791 359.779 242.472C360.044 242.153 360.358 241.907 360.723 241.733C361.092 241.556 361.5 241.467 361.946 241.467C362.311 241.467 362.639 241.517 362.931 241.617C363.222 241.713 363.471 241.868 363.676 242.082C363.885 242.296 364.045 242.574 364.154 242.916C364.264 243.253 364.318 243.666 364.318 244.153V249H363.047V244.14C363.047 243.752 362.99 243.442 362.876 243.21C362.762 242.973 362.596 242.802 362.377 242.697C362.158 242.588 361.889 242.533 361.57 242.533C361.256 242.533 360.969 242.599 360.709 242.731C360.454 242.864 360.233 243.046 360.046 243.278C359.864 243.511 359.72 243.777 359.615 244.078C359.515 244.374 359.465 244.689 359.465 245.021ZM366.154 245.384V245.227C366.154 244.693 366.232 244.199 366.387 243.743C366.542 243.283 366.765 242.884 367.057 242.547C367.348 242.205 367.701 241.941 368.116 241.754C368.531 241.562 368.996 241.467 369.511 241.467C370.03 241.467 370.497 241.562 370.912 241.754C371.331 241.941 371.687 242.205 371.979 242.547C372.275 242.884 372.5 243.283 372.655 243.743C372.81 244.199 372.888 244.693 372.888 245.227V245.384C372.888 245.917 372.81 246.411 372.655 246.867C372.5 247.323 372.275 247.722 371.979 248.063C371.687 248.401 371.334 248.665 370.919 248.856C370.509 249.043 370.044 249.137 369.524 249.137C369.005 249.137 368.538 249.043 368.123 248.856C367.708 248.665 367.353 248.401 367.057 248.063C366.765 247.722 366.542 247.323 366.387 246.867C366.232 246.411 366.154 245.917 366.154 245.384ZM367.419 245.227V245.384C367.419 245.753 367.462 246.102 367.549 246.43C367.635 246.753 367.765 247.04 367.938 247.291C368.116 247.542 368.337 247.74 368.602 247.886C368.866 248.027 369.174 248.098 369.524 248.098C369.871 248.098 370.174 248.027 370.434 247.886C370.698 247.74 370.917 247.542 371.09 247.291C371.263 247.04 371.393 246.753 371.479 246.43C371.571 246.102 371.616 245.753 371.616 245.384V245.227C371.616 244.862 371.571 244.518 371.479 244.194C371.393 243.866 371.261 243.577 371.083 243.326C370.91 243.071 370.691 242.87 370.427 242.725C370.167 242.579 369.862 242.506 369.511 242.506C369.164 242.506 368.859 242.579 368.595 242.725C368.335 242.87 368.116 243.071 367.938 243.326C367.765 243.577 367.635 243.866 367.549 244.194C367.462 244.518 367.419 244.862 367.419 245.227ZM375.981 243.073V249H374.71V241.604H375.913L375.981 243.073ZM375.722 245.021L375.134 245.001C375.138 244.495 375.204 244.028 375.332 243.6C375.46 243.167 375.649 242.791 375.899 242.472C376.15 242.153 376.462 241.907 376.836 241.733C377.21 241.556 377.643 241.467 378.135 241.467C378.481 241.467 378.8 241.517 379.092 241.617C379.383 241.713 379.636 241.866 379.851 242.075C380.065 242.285 380.231 242.554 380.35 242.882C380.468 243.21 380.527 243.606 380.527 244.071V249H379.263V244.133C379.263 243.745 379.197 243.436 379.064 243.203C378.937 242.971 378.755 242.802 378.518 242.697C378.281 242.588 378.003 242.533 377.684 242.533C377.31 242.533 376.998 242.599 376.747 242.731C376.496 242.864 376.296 243.046 376.146 243.278C375.995 243.511 375.886 243.777 375.817 244.078C375.754 244.374 375.722 244.689 375.722 245.021ZM380.514 244.324L379.666 244.584C379.671 244.178 379.737 243.789 379.864 243.415C379.996 243.041 380.186 242.709 380.432 242.417C380.682 242.125 380.99 241.895 381.354 241.727C381.719 241.553 382.136 241.467 382.605 241.467C383.002 241.467 383.353 241.519 383.658 241.624C383.968 241.729 384.228 241.891 384.438 242.109C384.652 242.324 384.813 242.599 384.923 242.937C385.032 243.274 385.087 243.675 385.087 244.14V249H383.815V244.126C383.815 243.711 383.749 243.39 383.617 243.162C383.49 242.93 383.307 242.768 383.07 242.677C382.838 242.581 382.56 242.533 382.236 242.533C381.958 242.533 381.712 242.581 381.498 242.677C381.284 242.772 381.104 242.905 380.958 243.073C380.812 243.237 380.701 243.426 380.623 243.641C380.55 243.855 380.514 244.083 380.514 244.324ZM393.783 245.992L395.759 239.047H396.716L396.162 241.747L394.036 249H393.086L393.783 245.992ZM391.739 239.047L393.312 245.855L393.783 249H392.84L390.427 239.047H391.739ZM399.272 245.849L400.811 239.047H402.13L399.724 249H398.78L399.272 245.849ZM396.859 239.047L398.78 245.992L399.478 249H398.527L396.477 241.747L395.916 239.047H396.859ZM407.78 247.735V243.928C407.78 243.636 407.721 243.383 407.603 243.169C407.489 242.95 407.315 242.782 407.083 242.663C406.851 242.545 406.563 242.485 406.222 242.485C405.903 242.485 405.622 242.54 405.381 242.649C405.144 242.759 404.957 242.902 404.82 243.08C404.688 243.258 404.622 243.449 404.622 243.654H403.357C403.357 243.39 403.426 243.128 403.562 242.868C403.699 242.608 403.895 242.374 404.15 242.164C404.41 241.95 404.72 241.781 405.08 241.658C405.445 241.531 405.85 241.467 406.297 241.467C406.835 241.467 407.309 241.558 407.719 241.74C408.133 241.923 408.457 242.198 408.689 242.567C408.926 242.932 409.045 243.39 409.045 243.941V247.387C409.045 247.633 409.065 247.895 409.106 248.173C409.152 248.451 409.218 248.69 409.305 248.891V249H407.985C407.922 248.854 407.871 248.66 407.835 248.419C407.799 248.173 407.78 247.945 407.78 247.735ZM407.999 244.516L408.013 245.404H406.734C406.374 245.404 406.053 245.434 405.771 245.493C405.488 245.548 405.251 245.632 405.06 245.746C404.868 245.86 404.722 246.004 404.622 246.177C404.522 246.345 404.472 246.544 404.472 246.771C404.472 247.004 404.524 247.216 404.629 247.407C404.734 247.599 404.891 247.751 405.101 247.865C405.315 247.975 405.577 248.029 405.887 248.029C406.274 248.029 406.616 247.947 406.912 247.783C407.208 247.619 407.443 247.419 407.616 247.182C407.794 246.945 407.89 246.715 407.903 246.491L408.443 247.1C408.411 247.291 408.325 247.503 408.184 247.735C408.042 247.968 407.853 248.191 407.616 248.405C407.384 248.615 407.106 248.79 406.782 248.932C406.463 249.068 406.103 249.137 405.702 249.137C405.201 249.137 404.761 249.039 404.383 248.843C404.009 248.647 403.717 248.385 403.508 248.057C403.303 247.724 403.2 247.353 403.2 246.942C403.2 246.546 403.278 246.197 403.433 245.896C403.588 245.591 403.811 245.338 404.103 245.138C404.394 244.933 404.745 244.778 405.155 244.673C405.565 244.568 406.023 244.516 406.529 244.516H407.999ZM412.658 238.5V249H411.387V238.5H412.658ZM416.312 238.5V249H415.041V238.5H416.312ZM421.662 249.137C421.147 249.137 420.68 249.05 420.261 248.877C419.846 248.699 419.488 248.451 419.188 248.132C418.891 247.813 418.663 247.435 418.504 246.997C418.344 246.56 418.265 246.081 418.265 245.562V245.274C418.265 244.673 418.354 244.137 418.531 243.668C418.709 243.194 418.951 242.793 419.256 242.465C419.561 242.137 419.908 241.888 420.295 241.72C420.682 241.551 421.083 241.467 421.498 241.467C422.027 241.467 422.482 241.558 422.865 241.74C423.253 241.923 423.569 242.178 423.815 242.506C424.062 242.829 424.244 243.212 424.362 243.654C424.481 244.092 424.54 244.57 424.54 245.09V245.657H419.017V244.625H423.275V244.529C423.257 244.201 423.189 243.882 423.07 243.572C422.956 243.262 422.774 243.007 422.523 242.807C422.273 242.606 421.931 242.506 421.498 242.506C421.211 242.506 420.947 242.567 420.705 242.69C420.464 242.809 420.256 242.987 420.083 243.224C419.91 243.461 419.775 243.75 419.68 244.092C419.584 244.434 419.536 244.828 419.536 245.274V245.562C419.536 245.912 419.584 246.243 419.68 246.553C419.78 246.858 419.924 247.127 420.11 247.359C420.302 247.592 420.532 247.774 420.801 247.906C421.074 248.038 421.384 248.104 421.73 248.104C422.177 248.104 422.555 248.013 422.865 247.831C423.175 247.649 423.446 247.405 423.679 247.1L424.444 247.708C424.285 247.95 424.082 248.18 423.836 248.398C423.59 248.617 423.287 248.795 422.927 248.932C422.571 249.068 422.15 249.137 421.662 249.137ZM429.363 241.604V242.574H425.364V241.604H429.363ZM426.718 239.806H427.982V247.168C427.982 247.419 428.021 247.608 428.099 247.735C428.176 247.863 428.276 247.947 428.399 247.988C428.522 248.029 428.655 248.05 428.796 248.05C428.901 248.05 429.01 248.041 429.124 248.022C429.243 248 429.331 247.981 429.391 247.968L429.397 249C429.297 249.032 429.165 249.062 429.001 249.089C428.841 249.121 428.648 249.137 428.42 249.137C428.11 249.137 427.825 249.075 427.565 248.952C427.306 248.829 427.098 248.624 426.943 248.337C426.793 248.045 426.718 247.653 426.718 247.161V239.806Z" fill="white"/>
<line x1="604" y1="361.5" x2="288" y2="361.5" stroke="#3B3B3B"/>
<circle cx="314" cy="383" r="9" fill="white" fill-opacity="0.1"/>
<circle cx="314" cy="286" r="9" fill="white" fill-opacity="0.1"/>
<circle cx="314" cy="328" r="9" fill="white" fill-opacity="0.1"/>
<path fill-rule="evenodd" clip-rule="evenodd" d="M883 3C884.105 3 885 3.89543 885 5V5.5C885 5.77614 885.224 6 885.5 6H888C888.552 6 889 6.44772 889 7V10.5C889 10.7761 889.224 11 889.5 11H890C891.105 11 892 11.8954 892 13C892 14.1046 891.105 15 890 15H889.5C889.224 15 889 15.2239 889 15.5V18C889 18.5523 888.552 19 888 19H885.5C885.224 19 885 18.7761 885 18.5V18C885 16.8954 884.105 16 883 16C881.895 16 881 16.8954 881 18V18.5C881 18.7761 880.776 19 880.5 19H877C876.448 19 876 18.5523 876 18V15.5C876 15.2239 876.224 15 876.5 15H877C878.105 15 879 14.1046 879 13C879 11.8954 878.105 11 877 11H876.5C876.224 11 876 10.7761 876 10.5V7C876 6.44772 876.448 6 877 6H880.5C880.776 6 881 5.77614 881 5.5V5C881 3.89543 881.895 3 883 3Z" fill="white"/>
<path d="M803.39 4.534C801.938 5.48 800.486 6.382 799.012 7.262C798.22 7.68 798.88 8.89 799.716 8.45C800.816 7.812 801.872 7.13 802.972 6.47C802.708 10.496 802.488 14.918 802.202 18.922C802.18 19.868 803.588 19.868 803.654 18.922C803.918 14.478 804.138 9.638 804.402 5.128C804.446 4.6 803.808 4.248 803.39 4.534ZM806.8 19.626C807.68 19.626 807.68 18.218 806.8 18.218C805.876 18.218 805.876 19.626 806.8 19.626ZM821.617 19.494C824.213 20.33 827.403 20.176 829.581 18.306C829.823 18.02 829.779 17.58 829.581 17.316C829.273 17.052 828.855 17.096 828.547 17.316C827.007 18.724 824.675 18.834 822.739 18.35C821.727 18.152 820.715 17.712 819.923 17.052C819.131 16.326 818.603 15.446 818.317 14.456C817.261 10.804 819.197 6.228 823.113 5.436C825.049 5.106 827.139 5.678 828.393 7.24C828.679 7.526 829.119 7.482 829.383 7.24C829.669 6.932 829.625 6.58 829.383 6.272C827.997 4.556 825.709 3.786 823.597 3.984C821.309 4.226 819.329 5.458 818.075 7.394C816.777 9.374 816.381 11.772 816.799 14.082C817.041 15.358 817.591 16.502 818.405 17.47C819.241 18.438 820.407 19.12 821.617 19.494ZM835.472 20.088C835.824 20.066 836.176 19.824 836.176 19.362C836.176 19.054 835.824 18.636 835.472 18.702C834.13 18.416 833.756 17.162 833.58 15.82C833.162 12.388 833.206 9.176 833.382 5.722C833.448 4.27 833.536 2.84 833.646 1.41C833.69 1.014 833.316 0.705999 832.92 0.705999C832.546 0.705999 832.304 1.014 832.26 1.41C832.084 4.16 831.93 6.932 831.908 9.682C831.82 12.3 831.82 15.116 832.568 17.668C832.964 18.944 833.976 20.264 835.472 20.088ZM839.202 17.646C839.268 15.204 839.334 12.696 839.4 10.188C839.422 9.286 838.036 9.286 837.992 10.188C837.948 12.696 837.882 15.204 837.816 17.646C837.816 18.526 839.202 18.526 839.202 17.646ZM838.828 7.328C839.73 7.328 839.73 5.942 838.828 5.942C837.948 5.942 837.948 7.328 838.828 7.328ZM850.968 16.678C851.848 16.436 851.496 15.116 850.638 15.358C849.384 15.688 848.13 15.798 846.832 15.688C845.776 15.622 844.5 15.402 843.686 14.698C843.004 14.082 842.696 13.114 843.312 12.3C844.016 11.552 845.16 11.09 846.15 10.848C846.832 10.694 847.514 10.606 848.174 10.694C848.702 10.738 849.384 10.782 849.824 11.134C850.11 11.376 850.55 11.42 850.814 11.134C851.034 10.914 851.122 10.408 850.814 10.144C849.604 9.22 847.998 9.132 846.524 9.374C845.138 9.572 843.664 10.1 842.608 11.09C841.552 12.08 841.288 13.598 842.058 14.83C842.784 16.106 844.236 16.722 845.6 16.942C847.426 17.25 849.252 17.162 850.968 16.678ZM857.542 15.05C858.796 15.556 860.072 16.062 861.282 16.678C861.634 16.854 862.074 16.766 862.25 16.414C862.448 16.128 862.382 15.644 861.986 15.49C860.82 14.918 859.61 14.39 858.4 13.906C857.784 13.664 857.146 13.466 856.53 13.246C856.376 13.202 856.156 13.136 855.936 13.048C856.134 12.96 856.244 12.894 856.442 12.806C856.97 12.564 857.52 12.322 858.026 12.036C859.126 11.508 860.27 10.936 861.348 10.408C862.162 10.034 861.414 8.758 860.644 9.22C859.324 9.836 858.026 10.474 856.706 11.134C856.222 11.376 855.672 11.64 855.166 11.904C855.122 9.352 855.188 6.866 855.342 4.358C855.386 3.962 855.034 3.632 854.682 3.632C854.264 3.632 854.022 3.962 853.978 4.358C853.67 9.594 853.736 14.412 854.132 19.208C854.154 19.604 854.396 19.912 854.814 19.912C855.122 19.912 855.518 19.604 855.496 19.208C855.342 17.58 855.254 15.93 855.188 14.346C855.32 14.368 855.43 14.39 855.584 14.434C856.244 14.61 856.882 14.852 857.542 15.05Z" fill="white"/>
<path d="M909.742 19.494C912.338 20.33 915.528 20.176 917.706 18.306C917.948 18.02 917.904 17.58 917.706 17.316C917.398 17.052 916.98 17.096 916.672 17.316C915.132 18.724 912.8 18.834 910.864 18.35C909.852 18.152 908.84 17.712 908.048 17.052C907.256 16.326 906.728 15.446 906.442 14.456C905.386 10.804 907.322 6.228 911.238 5.436C913.174 5.106 915.264 5.678 916.518 7.24C916.804 7.526 917.244 7.482 917.508 7.24C917.794 6.932 917.75 6.58 917.508 6.272C916.122 4.556 913.834 3.786 911.722 3.984C909.434 4.226 907.454 5.458 906.2 7.394C904.902 9.374 904.506 11.772 904.924 14.082C905.166 15.358 905.716 16.502 906.53 17.47C907.366 18.438 908.532 19.12 909.742 19.494ZM926.633 11.86C928.569 13.048 928.239 15.864 928.041 17.756C927.975 18.152 928.393 18.46 928.745 18.46C929.119 18.46 929.361 18.152 929.383 17.756C929.647 15.644 929.779 13.378 928.393 11.596C926.721 9.528 923.487 9.682 921.661 11.486C921.683 8.934 921.595 6.448 921.485 3.94C921.397 3.06 919.989 3.06 920.055 3.94C920.231 6.976 920.297 10.1 920.231 13.158C920.231 13.246 920.231 13.378 920.231 13.444C920.209 14.918 920.187 16.436 920.077 17.932C919.989 18.812 921.419 18.812 921.485 17.932C921.573 16.48 921.617 15.006 921.617 13.554C922.761 12.08 924.807 10.76 926.633 11.86ZM938.779 8.692C937.789 8.076 936.601 8.098 935.567 8.582C934.907 8.912 934.401 9.308 934.005 9.858C934.071 9.154 934.115 8.428 934.247 7.702C934.291 7.35 934.115 6.998 933.741 6.888C933.433 6.8 932.949 6.998 932.905 7.35C932.333 11.354 932.311 15.314 932.949 19.032C932.971 19.384 933.455 19.582 933.763 19.516C934.181 19.384 934.335 19.032 934.269 18.658C934.247 18.35 934.181 18.064 934.115 17.778C934.005 15.842 933.829 14.06 934.269 12.41C934.665 10.782 935.897 9.264 937.613 9.616C938.361 9.858 938.933 10.496 938.889 11.288C938.845 11.662 939.241 11.97 939.549 11.97C939.967 11.97 940.231 11.662 940.275 11.288C940.385 10.21 939.703 9.242 938.779 8.692ZM943.426 11.288C942.304 12.872 942.392 15.16 943.602 16.722C944.9 18.416 947.122 18.658 948.97 17.844C950.686 17.074 952.072 15.402 952.16 13.466C952.248 12.058 951.522 10.694 950.4 9.946C948.332 8.538 944.614 9.132 943.426 11.288ZM949.674 11.134C950.246 11.53 950.664 12.212 950.73 12.96C950.906 14.412 950.048 15.666 948.86 16.326C947.694 17.008 946.066 17.184 945.01 16.238C944.042 15.292 943.778 13.73 944.328 12.498C944.658 11.728 945.318 11.156 946.066 10.826C946.99 10.43 948.684 10.386 949.674 11.134ZM963.181 16.92C963.313 15.028 963.533 12.806 964.963 11.508C965.579 10.936 966.591 10.496 967.317 11.046C967.955 11.53 968.153 12.432 968.285 13.202C968.439 14.544 968.043 16.744 967.691 18.108C967.493 18.966 968.791 19.318 969.033 18.482C969.451 17.03 969.847 14.742 969.715 13.29C969.583 12.168 969.253 10.892 968.373 10.144C967.339 9.242 965.931 9.264 964.743 9.902C963.687 10.54 962.961 11.618 962.543 12.784C962.543 12.806 962.543 12.806 962.543 12.828C962.477 12.718 962.455 12.608 962.411 12.498C962.125 11.31 961.597 10.144 960.343 9.682C959.067 9.286 957.681 9.902 956.867 10.848C956.493 11.288 956.207 11.75 955.987 12.212C955.833 11.31 955.745 10.386 955.657 9.506C955.613 9.088 955.415 8.758 954.997 8.758C954.645 8.758 954.271 9.088 954.293 9.506C954.601 12.476 954.931 15.512 955.261 18.504C955.327 18.878 955.547 19.208 955.965 19.208C956.317 19.208 956.691 18.878 956.647 18.504C956.493 16.524 956.361 14.302 957.395 12.498C957.813 11.75 958.561 10.936 959.573 10.958C960.541 10.98 960.849 11.992 961.069 12.74C961.443 14.126 961.663 15.534 961.773 16.92C961.817 17.822 963.115 17.822 963.181 16.92ZM974.306 17.052C976.616 18.372 979.256 17.558 981.39 16.282C982.116 15.798 981.456 14.588 980.664 15.05C979.256 15.93 977.562 16.656 975.846 16.194C974.658 15.886 973.69 14.962 973.536 13.774C974.57 13.994 975.648 14.104 976.682 14.016C977.76 13.95 979.08 13.774 980.026 13.158C981.016 12.52 981.566 11.244 980.818 10.21C980.158 9.286 979.036 8.868 977.98 8.78C975.846 8.56 973.536 9.616 972.568 11.574C971.578 13.598 972.326 15.952 974.306 17.052ZM976.792 10.21C977.518 10.122 978.354 10.144 979.036 10.496C979.278 10.606 979.674 10.804 979.762 11.09C979.85 11.398 979.674 11.706 979.432 11.904C979.08 12.168 978.618 12.3 978.222 12.388C977.694 12.52 977.188 12.608 976.682 12.652C975.692 12.696 974.68 12.608 973.734 12.388C974.218 11.156 975.472 10.408 976.792 10.21ZM1002.27 17.294C1001.21 17.668 1000.11 17.976 999.037 18.24C998.091 18.416 997.189 18.636 996.221 18.636C995.429 18.658 994.593 18.526 994.021 17.954C993.031 16.986 992.679 14.478 992.591 13.29C994.153 13.18 995.671 13.136 997.189 13.07C997.585 13.048 997.893 12.762 997.893 12.344C997.893 11.992 997.585 11.662 997.189 11.662C995.671 11.706 994.131 11.75 992.547 11.838C992.459 10.342 992.921 6.844 994.351 5.656C994.901 5.238 995.671 5.062 996.353 4.996C997.343 4.952 998.289 5.084 999.213 5.238C1000.49 5.458 1001.74 5.722 1002.93 6.03C1003.83 6.206 1004.23 4.886 1003.35 4.666C1002.16 4.38 1000.93 4.138 999.763 3.918C998.751 3.764 997.739 3.588 996.683 3.61C995.715 3.61 994.747 3.83 993.933 4.292C991.821 5.744 991.359 8.934 991.227 11.398C991.161 12.608 991.359 14.5 991.535 15.688C991.887 17.624 992.899 19.56 995.011 19.956C996.265 20.154 997.519 19.978 998.685 19.714C1000.05 19.472 1001.32 19.076 1002.64 18.636C1003.5 18.35 1003.13 16.986 1002.27 17.294ZM1013.47 8.472C1012.31 9.682 1011.16 10.958 1010.11 12.278C1009.07 11.002 1008.02 9.77 1006.9 8.604C1006.3 7.922 1005.29 8.934 1005.95 9.594C1007.05 10.826 1008.13 12.102 1009.21 13.4C1008.04 14.984 1006.9 16.678 1005.86 18.372C1005.42 19.164 1006.59 19.846 1007.05 19.098C1008.02 17.514 1009.01 15.974 1010.11 14.5C1011.12 15.776 1012.15 17.14 1013.12 18.46C1013.34 18.79 1013.72 18.922 1014.07 18.724C1014.35 18.592 1014.53 18.086 1014.33 17.778C1013.23 16.304 1012.15 14.808 1011.01 13.4C1012.09 12.014 1013.21 10.716 1014.46 9.462C1015.1 8.846 1014.11 7.812 1013.47 8.472ZM1025.79 15.82C1025.48 16.392 1025.13 16.854 1024.69 17.272C1024.29 17.69 1023.74 18.152 1023.15 18.262C1022.07 18.416 1021.54 17.008 1021.35 16.26C1020.91 14.984 1020.84 13.62 1020.82 12.278C1020.82 11.882 1020.82 11.552 1020.82 11.178C1022.12 11.178 1023.44 11.178 1024.73 11.178C1025.61 11.134 1025.61 9.77 1024.73 9.814C1023.44 9.836 1022.18 9.836 1020.84 9.836C1020.88 9.22 1020.91 8.56 1020.97 7.9C1021.1 6.272 1021.35 4.666 1021.61 3.06C1021.68 2.73 1021.5 2.334 1021.13 2.246C1020.82 2.158 1020.33 2.334 1020.27 2.73C1019.85 5.04 1019.56 7.438 1019.43 9.814C1018.79 9.77 1018.09 9.77 1017.43 9.748C1016.55 9.682 1016.55 11.046 1017.43 11.09C1018.09 11.134 1018.77 11.178 1019.41 11.178C1019.41 11.596 1019.41 12.058 1019.41 12.564C1019.43 14.06 1019.59 15.644 1020.18 17.162C1020.62 18.35 1021.59 19.692 1023.11 19.582C1024.01 19.516 1024.78 19.054 1025.39 18.438C1026.05 17.888 1026.6 17.25 1027.04 16.502C1027.44 15.776 1026.27 15.094 1025.79 15.82ZM1031.24 17.052C1033.55 18.372 1036.19 17.558 1038.32 16.282C1039.05 15.798 1038.39 14.588 1037.6 15.05C1036.19 15.93 1034.5 16.656 1032.78 16.194C1031.59 15.886 1030.62 14.962 1030.47 13.774C1031.5 13.994 1032.58 14.104 1033.62 14.016C1034.69 13.95 1036.01 13.774 1036.96 13.158C1037.95 12.52 1038.5 11.244 1037.75 10.21C1037.09 9.286 1035.97 8.868 1034.91 8.78C1032.78 8.56 1030.47 9.616 1029.5 11.574C1028.51 13.598 1029.26 15.952 1031.24 17.052ZM1033.73 10.21C1034.45 10.122 1035.29 10.144 1035.97 10.496C1036.21 10.606 1036.61 10.804 1036.7 11.09C1036.78 11.398 1036.61 11.706 1036.37 11.904C1036.01 12.168 1035.55 12.3 1035.16 12.388C1034.63 12.52 1034.12 12.608 1033.62 12.652C1032.63 12.696 1031.61 12.608 1030.67 12.388C1031.15 11.156 1032.41 10.408 1033.73 10.21ZM1049.86 9.242C1048.58 8.296 1046.91 8.67 1045.64 9.418C1044.45 10.21 1043.48 11.31 1042.82 12.586C1042.62 12.96 1042.49 13.312 1042.31 13.708C1042.2 12.41 1042.05 11.09 1041.92 9.77C1041.9 9.418 1041.63 9.088 1041.26 9.088C1040.91 9.088 1040.51 9.418 1040.53 9.77C1040.8 12.498 1041.08 15.16 1041.35 17.866C1041.37 18.196 1041.57 18.504 1041.92 18.526C1042.25 18.57 1042.62 18.416 1042.71 18.042C1043.06 15.556 1043.68 12.85 1045.64 11.112C1046.45 10.496 1047.66 9.748 1048.72 10.166C1049.84 10.606 1050.1 12.08 1050.19 13.136C1050.32 14.786 1050.26 16.48 1049.99 18.108C1049.93 18.482 1050.1 18.834 1050.5 18.966C1050.81 19.054 1051.31 18.834 1051.33 18.482C1051.64 16.766 1051.73 15.028 1051.64 13.334C1051.49 11.838 1051.16 10.21 1049.86 9.242ZM1061.09 8.318C1059.46 7.834 1057.7 8.01 1056.18 8.758C1054.66 9.44 1053.08 11.046 1053.96 12.784C1054.31 13.466 1055.08 13.906 1055.79 14.192C1056.47 14.478 1057.24 14.632 1058.01 14.742C1058.82 14.896 1061.29 15.138 1060.71 16.59C1060.41 17.316 1059.48 17.646 1058.8 17.866C1057.88 18.152 1056.93 18.196 1055.98 18.042C1055.1 17.888 1054.8 19.252 1055.68 19.384C1057.39 19.714 1059.28 19.494 1060.76 18.526C1061.46 18.086 1061.99 17.382 1062.17 16.568C1062.28 15.732 1062.01 14.918 1061.31 14.412C1060.12 13.466 1058.45 13.488 1057.02 13.158C1056.42 13.004 1055.59 12.762 1055.26 12.234C1054.91 11.64 1055.39 10.98 1055.85 10.606C1057.22 9.506 1059.09 9.242 1060.78 9.638C1061.64 9.858 1061.95 8.538 1061.09 8.318ZM1065.77 17.646C1065.84 15.204 1065.9 12.696 1065.97 10.188C1065.99 9.286 1064.61 9.286 1064.56 10.188C1064.52 12.696 1064.45 15.204 1064.39 17.646C1064.39 18.526 1065.77 18.526 1065.77 17.646ZM1065.4 7.328C1066.3 7.328 1066.3 5.942 1065.4 5.942C1064.52 5.942 1064.52 7.328 1065.4 7.328ZM1069 11.288C1067.88 12.872 1067.97 15.16 1069.18 16.722C1070.48 18.416 1072.7 18.658 1074.55 17.844C1076.26 17.074 1077.65 15.402 1077.74 13.466C1077.82 12.058 1077.1 10.694 1075.98 9.946C1073.91 8.538 1070.19 9.132 1069 11.288ZM1075.25 11.134C1075.82 11.53 1076.24 12.212 1076.31 12.96C1076.48 14.412 1075.62 15.666 1074.44 16.326C1073.27 17.008 1071.64 17.184 1070.59 16.238C1069.62 15.292 1069.35 13.73 1069.9 12.498C1070.23 11.728 1070.89 11.156 1071.64 10.826C1072.57 10.43 1074.26 10.386 1075.25 11.134ZM1089.26 9.242C1087.99 8.296 1086.32 8.67 1085.04 9.418C1083.85 10.21 1082.88 11.31 1082.22 12.586C1082.03 12.96 1081.89 13.312 1081.72 13.708C1081.61 12.41 1081.45 11.09 1081.32 9.77C1081.3 9.418 1081.04 9.088 1080.66 9.088C1080.31 9.088 1079.91 9.418 1079.94 9.77C1080.2 12.498 1080.49 15.16 1080.75 17.866C1080.77 18.196 1080.97 18.504 1081.32 18.526C1081.65 18.57 1082.03 18.416 1082.11 18.042C1082.47 15.556 1083.08 12.85 1085.04 11.112C1085.85 10.496 1087.06 9.748 1088.12 10.166C1089.24 10.606 1089.51 12.08 1089.59 13.136C1089.73 14.786 1089.66 16.48 1089.4 18.108C1089.33 18.482 1089.51 18.834 1089.9 18.966C1090.21 19.054 1090.72 18.834 1090.74 18.482C1091.05 16.766 1091.13 15.028 1091.05 13.334C1090.89 11.838 1090.56 10.21 1089.26 9.242ZM1100.49 8.318C1098.86 7.834 1097.1 8.01 1095.58 8.758C1094.07 9.44 1092.48 11.046 1093.36 12.784C1093.71 13.466 1094.48 13.906 1095.19 14.192C1095.87 14.478 1096.64 14.632 1097.41 14.742C1098.22 14.896 1100.69 15.138 1100.12 16.59C1099.81 17.316 1098.88 17.646 1098.2 17.866C1097.28 18.152 1096.33 18.196 1095.39 18.042C1094.51 17.888 1094.2 19.252 1095.08 19.384C1096.79 19.714 1098.69 19.494 1100.16 18.526C1100.86 18.086 1101.39 17.382 1101.57 16.568C1101.68 15.732 1101.41 14.918 1100.71 14.412C1099.52 13.466 1097.85 13.488 1096.42 13.158C1095.83 13.004 1094.99 12.762 1094.66 12.234C1094.31 11.64 1094.79 10.98 1095.25 10.606C1096.62 9.506 1098.49 9.242 1100.18 9.638C1101.04 9.858 1101.35 8.538 1100.49 8.318Z" fill="white"/>
<path d="M1.958 193.846C2.772 192.416 4.246 191.47 5.852 191.206C6.556 191.052 7.568 191.03 8.162 191.47C8.866 191.976 8.712 192.944 8.382 193.626C7.59 195.298 6.182 196.684 4.95 198.026C4.268 198.752 3.63 199.522 3.036 200.292C2.486 200.996 1.694 201.986 1.804 202.932C1.914 204.252 3.322 204.384 4.356 204.384C5.632 204.384 6.908 204.274 8.162 204.054C8.558 204.032 8.778 203.526 8.69 203.196C8.558 202.844 8.162 202.646 7.832 202.712C6.71 202.888 5.566 202.976 4.422 202.976C2.222 202.976 3.828 201.458 4.686 200.424C5.456 199.456 6.336 198.576 7.15 197.63C7.832 196.904 8.47 196.156 8.954 195.32C9.526 194.484 10.076 193.494 10.054 192.46C9.988 191.36 9.416 190.458 8.448 190.062C7.568 189.71 6.556 189.71 5.632 189.82C3.63 190.128 1.782 191.426 0.748 193.142C0.308 193.956 1.518 194.616 1.958 193.846ZM12.3666 204.626C13.2466 204.626 13.2466 203.218 12.3666 203.218C11.4426 203.218 11.4426 204.626 12.3666 204.626ZM33.0574 190.282C31.7374 189.534 30.3294 188.94 28.8774 188.588C27.5134 188.236 25.8634 187.95 24.7854 189.028C23.8834 189.886 23.5754 191.47 23.5534 192.658C23.4654 194.11 23.6854 197.058 23.7734 198.532C23.4874 198.532 23.3774 198.576 23.0914 198.576C22.2114 198.62 22.2114 200.006 23.0914 199.918C23.3994 199.918 23.7074 199.896 23.9934 199.896C24.1914 201.436 24.4114 202.954 24.7194 204.45C24.7854 204.846 25.2474 205.022 25.5774 204.934C25.9294 204.868 26.1494 204.45 26.0614 204.098C25.7534 202.712 25.5554 201.238 25.4014 199.83C27.5134 199.786 29.6254 199.742 31.7154 199.808C32.6394 199.83 32.6394 198.444 31.7154 198.422C29.5594 198.356 27.3594 198.4 25.2254 198.466C25.1594 197.476 24.8734 194.946 24.8734 193.956C24.8734 192.944 24.9394 191.382 25.4234 190.436C26.0174 189.38 27.2054 189.6 28.1954 189.842C29.6474 190.172 31.0774 190.744 32.3534 191.492C33.1234 191.976 33.8054 190.744 33.0574 190.282ZM36.5613 202.646C36.6273 200.204 36.6933 197.696 36.7593 195.188C36.7812 194.286 35.3953 194.286 35.3513 195.188C35.3073 197.696 35.2413 200.204 35.1753 202.646C35.1753 203.526 36.5613 203.526 36.5613 202.646ZM36.1873 192.328C37.0893 192.328 37.0893 190.942 36.1873 190.942C35.3073 190.942 35.3073 192.328 36.1873 192.328ZM48.107 194.242C46.831 193.296 45.159 193.67 43.883 194.418C42.695 195.21 41.727 196.31 41.067 197.586C40.869 197.96 40.737 198.312 40.561 198.708C40.451 197.41 40.297 196.09 40.165 194.77C40.143 194.418 39.879 194.088 39.505 194.088C39.153 194.088 38.757 194.418 38.779 194.77C39.043 197.498 39.329 200.16 39.593 202.866C39.615 203.196 39.813 203.504 40.165 203.526C40.495 203.57 40.869 203.416 40.957 203.042C41.309 200.556 41.925 197.85 43.883 196.112C44.697 195.496 45.907 194.748 46.963 195.166C48.085 195.606 48.349 197.08 48.437 198.136C48.569 199.786 48.503 201.48 48.239 203.108C48.173 203.482 48.349 203.834 48.745 203.966C49.053 204.054 49.559 203.834 49.581 203.482C49.889 201.766 49.977 200.028 49.889 198.334C49.735 196.838 49.405 195.21 48.107 194.242ZM62.5671 186.63C62.1271 186.63 61.8851 186.96 61.8191 187.334C61.5111 190.128 61.2471 192.878 61.0711 195.672C59.8831 195.1 58.6731 194.572 57.3751 194.484C56.0111 194.352 54.4491 194.726 53.4811 195.716C52.6451 196.662 52.2711 198.048 52.6671 199.28C53.1951 200.666 54.6691 201.304 56.0551 201.568C57.5951 201.854 59.2451 201.7 60.7851 201.26C60.7411 202.096 60.6971 202.932 60.6971 203.724C60.6751 204.626 62.0611 204.626 62.0831 203.724C62.1711 198.246 62.5671 192.79 63.2051 187.334C63.2711 186.96 62.8751 186.63 62.5671 186.63ZM57.1991 200.314C56.2531 200.248 54.8451 200.006 54.1851 199.192C53.6791 198.532 53.8551 197.52 54.3611 196.86C54.9991 196.024 56.1651 195.804 57.1331 195.848C58.5191 195.936 59.7731 196.574 60.9611 197.168C60.9171 198.026 60.8731 198.884 60.8511 199.742C59.6851 200.182 58.4531 200.424 57.1991 200.314Z" fill="white"/>
<path d="M116.32 189.644C115.682 191.602 115.066 193.604 114.472 195.584C113.9 197.41 113.35 199.28 112.58 201.084C112.448 201.48 112.206 201.898 112.008 202.294C111.876 202.624 111.656 203.042 111.37 203.24C110.732 203.658 110.182 202.8 109.962 202.294C109.522 201.458 109.214 200.49 108.906 199.61C108.576 198.642 108.268 197.74 108.004 196.794C107.322 194.638 106.772 192.46 106.288 190.216C106.068 189.38 104.748 189.732 104.924 190.612C105.386 192.746 105.958 194.836 106.552 196.926C106.882 197.982 107.234 199.06 107.652 200.072C107.982 201.084 108.312 202.118 108.774 203.042C109.17 203.922 110.006 204.736 111.062 204.736C112.052 204.736 112.668 203.966 113.13 203.174C114.164 201.304 114.78 199.258 115.374 197.256C116.188 194.836 116.892 192.416 117.64 189.974C117.948 189.16 116.584 188.786 116.32 189.644ZM121.541 202.052C123.851 203.372 126.491 202.558 128.625 201.282C129.351 200.798 128.691 199.588 127.899 200.05C126.491 200.93 124.797 201.656 123.081 201.194C121.893 200.886 120.925 199.962 120.771 198.774C121.805 198.994 122.883 199.104 123.917 199.016C124.995 198.95 126.315 198.774 127.261 198.158C128.251 197.52 128.801 196.244 128.053 195.21C127.393 194.286 126.271 193.868 125.215 193.78C123.081 193.56 120.771 194.616 119.803 196.574C118.813 198.598 119.561 200.952 121.541 202.052ZM124.027 195.21C124.753 195.122 125.589 195.144 126.271 195.496C126.513 195.606 126.909 195.804 126.997 196.09C127.085 196.398 126.909 196.706 126.667 196.904C126.315 197.168 125.853 197.3 125.457 197.388C124.929 197.52 124.423 197.608 123.917 197.652C122.927 197.696 121.915 197.608 120.969 197.388C121.453 196.156 122.707 195.408 124.027 195.21ZM140.162 194.242C138.886 193.296 137.214 193.67 135.938 194.418C134.75 195.21 133.782 196.31 133.122 197.586C132.924 197.96 132.792 198.312 132.616 198.708C132.506 197.41 132.352 196.09 132.22 194.77C132.198 194.418 131.934 194.088 131.56 194.088C131.208 194.088 130.812 194.418 130.834 194.77C131.098 197.498 131.384 200.16 131.648 202.866C131.67 203.196 131.868 203.504 132.22 203.526C132.55 203.57 132.924 203.416 133.012 203.042C133.364 200.556 133.98 197.85 135.938 196.112C136.752 195.496 137.962 194.748 139.018 195.166C140.14 195.606 140.404 197.08 140.492 198.136C140.624 199.786 140.558 201.48 140.294 203.108C140.228 203.482 140.404 203.834 140.8 203.966C141.108 204.054 141.614 203.834 141.636 203.482C141.944 201.766 142.032 200.028 141.944 198.334C141.79 196.838 141.46 195.21 140.162 194.242ZM145.338 196.288C144.216 197.872 144.304 200.16 145.514 201.722C146.812 203.416 149.034 203.658 150.882 202.844C152.598 202.074 153.984 200.402 154.072 198.466C154.16 197.058 153.434 195.694 152.312 194.946C150.244 193.538 146.526 194.132 145.338 196.288ZM151.586 196.134C152.158 196.53 152.576 197.212 152.642 197.96C152.818 199.412 151.96 200.666 150.772 201.326C149.606 202.008 147.978 202.184 146.922 201.238C145.954 200.292 145.69 198.73 146.24 197.498C146.57 196.728 147.23 196.156 147.978 195.826C148.902 195.43 150.596 195.386 151.586 196.134ZM165.093 201.92C165.225 200.028 165.445 197.806 166.875 196.508C167.491 195.936 168.503 195.496 169.229 196.046C169.867 196.53 170.065 197.432 170.197 198.202C170.351 199.544 169.955 201.744 169.603 203.108C169.405 203.966 170.703 204.318 170.945 203.482C171.363 202.03 171.759 199.742 171.627 198.29C171.495 197.168 171.165 195.892 170.285 195.144C169.251 194.242 167.843 194.264 166.655 194.902C165.599 195.54 164.873 196.618 164.455 197.784C164.455 197.806 164.455 197.806 164.455 197.828C164.389 197.718 164.367 197.608 164.323 197.498C164.037 196.31 163.509 195.144 162.255 194.682C160.979 194.286 159.593 194.902 158.779 195.848C158.405 196.288 158.119 196.75 157.899 197.212C157.745 196.31 157.657 195.386 157.569 194.506C157.525 194.088 157.327 193.758 156.909 193.758C156.557 193.758 156.183 194.088 156.205 194.506C156.513 197.476 156.843 200.512 157.173 203.504C157.239 203.878 157.459 204.208 157.877 204.208C158.229 204.208 158.603 203.878 158.559 203.504C158.405 201.524 158.273 199.302 159.307 197.498C159.725 196.75 160.473 195.936 161.485 195.958C162.453 195.98 162.761 196.992 162.981 197.74C163.355 199.126 163.575 200.534 163.685 201.92C163.729 202.822 165.027 202.822 165.093 201.92ZM198.3 201.964C198.52 201.238 198.608 200.402 198.608 199.632C198.542 198.62 198.476 197.586 198.366 196.596C198.058 194.286 197.552 191.998 197.002 189.71C196.826 188.852 195.462 189.204 195.682 190.062C196.1 191.844 196.518 193.67 196.826 195.496C197.09 197.19 197.31 198.972 197.134 200.666C197.068 201.216 196.936 201.788 196.65 202.228C196.254 202.712 195.682 202.844 195.088 202.646C193.834 202.294 192.998 201.062 192.514 199.852C191.81 198.312 191.546 196.552 191.15 194.902C190.974 194.176 190.028 194.286 189.83 194.902C189.28 196.442 188.73 198.004 188.048 199.478C187.652 200.248 187.278 200.93 186.86 201.634C186.486 202.206 186.068 202.866 185.496 203.35C185.232 203.504 184.946 203.658 184.638 203.614C184.374 203.57 184.198 203.372 184.088 203.13C183.626 202.404 183.428 201.656 183.296 200.842C183.01 199.214 183.098 197.476 183.186 195.782C183.274 193.758 183.494 191.712 183.846 189.688C183.912 189.314 183.758 188.94 183.362 188.852C183.01 188.742 182.548 188.94 182.482 189.314C182.152 191.36 181.91 193.428 181.8 195.474C181.668 197.41 181.602 199.434 181.976 201.37C182.328 202.998 183.12 205.396 185.232 204.934C186.112 204.78 186.75 204.076 187.256 203.438C187.828 202.69 188.378 201.898 188.796 201.084C189.39 199.94 189.874 198.774 190.358 197.564C190.93 200.116 191.854 202.8 194.34 203.812C195.176 204.208 196.144 204.252 196.936 203.746C197.618 203.416 198.036 202.712 198.3 201.964ZM210.207 204.076C209.943 201.084 209.877 198.07 210.053 195.078C210.119 194.396 209.151 194.154 208.777 194.748C208.667 194.968 208.491 195.232 208.359 195.496C206.665 195.474 204.949 195.826 203.497 196.684C202.111 197.432 200.791 198.62 200.549 200.226C200.461 201.018 200.637 201.942 201.385 202.36C202.001 202.712 202.771 202.668 203.475 202.382C204.861 201.876 206.093 200.864 207.061 199.742C207.633 199.104 208.117 198.4 208.601 197.718C208.579 199.83 208.645 201.986 208.865 204.076C208.909 204.45 209.151 204.802 209.569 204.802C209.877 204.802 210.273 204.45 210.207 204.076ZM204.113 200.556C203.629 200.842 203.079 201.172 202.529 201.216C202.111 201.238 201.869 201.128 201.869 200.666C201.913 199.478 203.013 198.554 203.937 197.982C205.037 197.366 206.225 196.992 207.479 196.926C206.577 198.29 205.521 199.61 204.113 200.556ZM216.109 205.088C216.461 205.066 216.813 204.824 216.813 204.362C216.813 204.054 216.461 203.636 216.109 203.702C214.767 203.416 214.393 202.162 214.217 200.82C213.799 197.388 213.843 194.176 214.019 190.722C214.085 189.27 214.173 187.84 214.283 186.41C214.327 186.014 213.953 185.706 213.557 185.706C213.183 185.706 212.941 186.014 212.897 186.41C212.721 189.16 212.567 191.932 212.545 194.682C212.457 197.3 212.457 200.116 213.205 202.668C213.601 203.944 214.613 205.264 216.109 205.088ZM222.039 205.088C222.391 205.066 222.743 204.824 222.743 204.362C222.743 204.054 222.391 203.636 222.039 203.702C220.697 203.416 220.323 202.162 220.147 200.82C219.729 197.388 219.773 194.176 219.949 190.722C220.015 189.27 220.103 187.84 220.213 186.41C220.257 186.014 219.883 185.706 219.487 185.706C219.113 185.706 218.871 186.014 218.827 186.41C218.651 189.16 218.497 191.932 218.475 194.682C218.387 197.3 218.387 200.116 219.135 202.668C219.531 203.944 220.543 205.264 222.039 205.088ZM226.384 202.052C228.694 203.372 231.334 202.558 233.468 201.282C234.194 200.798 233.534 199.588 232.742 200.05C231.334 200.93 229.64 201.656 227.924 201.194C226.736 200.886 225.768 199.962 225.614 198.774C226.648 198.994 227.726 199.104 228.76 199.016C229.838 198.95 231.158 198.774 232.104 198.158C233.094 197.52 233.644 196.244 232.896 195.21C232.236 194.286 231.114 193.868 230.058 193.78C227.924 193.56 225.614 194.616 224.646 196.574C223.656 198.598 224.404 200.952 226.384 202.052ZM228.87 195.21C229.596 195.122 230.432 195.144 231.114 195.496C231.356 195.606 231.752 195.804 231.84 196.09C231.928 196.398 231.752 196.706 231.51 196.904C231.158 197.168 230.696 197.3 230.3 197.388C229.772 197.52 229.266 197.608 228.76 197.652C227.77 197.696 226.758 197.608 225.812 197.388C226.296 196.156 227.55 195.408 228.87 195.21ZM244.675 200.82C244.367 201.392 244.015 201.854 243.575 202.272C243.179 202.69 242.629 203.152 242.035 203.262C240.957 203.416 240.429 202.008 240.231 201.26C239.791 199.984 239.725 198.62 239.703 197.278C239.703 196.882 239.703 196.552 239.703 196.178C241.001 196.178 242.321 196.178 243.619 196.178C244.499 196.134 244.499 194.77 243.619 194.814C242.321 194.836 241.067 194.836 239.725 194.836C239.769 194.22 239.791 193.56 239.857 192.9C239.989 191.272 240.231 189.666 240.495 188.06C240.561 187.73 240.385 187.334 240.011 187.246C239.703 187.158 239.219 187.334 239.153 187.73C238.735 190.04 238.449 192.438 238.317 194.814C237.679 194.77 236.975 194.77 236.315 194.748C235.435 194.682 235.435 196.046 236.315 196.09C236.975 196.134 237.657 196.178 238.295 196.178C238.295 196.596 238.295 197.058 238.295 197.564C238.317 199.06 238.471 200.644 239.065 202.162C239.505 203.35 240.473 204.692 241.991 204.582C242.893 204.516 243.663 204.054 244.279 203.438C244.939 202.888 245.489 202.25 245.929 201.502C246.325 200.776 245.159 200.094 244.675 200.82Z" fill="white"/>
<path d="M91.2992 190.06C91.0176 189.728 90.6615 189.461 90.2572 189.278C89.8528 189.094 89.4104 188.999 88.9625 189C88.5313 189 88.1048 189.087 87.7112 189.254C87.3175 189.422 86.9654 189.667 86.6781 189.973C86.058 190.637 85.8072 191.525 85.9715 192.479C86.0017 192.651 86.0337 192.824 86.0662 192.997C86.166 193.534 86.2868 194.595 86.2868 195.082C86.2868 197.617 85.1141 198.819 84.0017 198.819C82.8894 198.819 81.715 197.617 81.715 195.082C81.715 194.595 81.8357 193.534 81.9356 192.997C81.9681 192.824 82 192.651 82.0302 192.479C82.1945 191.525 81.9437 190.635 81.3237 189.973C81.0363 189.667 80.6843 189.422 80.2906 189.254C79.8969 189.087 79.4705 189 79.0392 189C78.5913 188.999 78.1489 189.094 77.7446 189.278C77.3402 189.461 76.9841 189.728 76.7025 190.06C76.2547 190.584 76.007 191.237 76 191.912C75.9969 192.436 76.1475 192.95 76.4349 193.396C76.8018 193.971 77.3411 194.388 77.8444 194.81C78.5992 195.445 79.4944 196.925 79.9286 198.917C80.5092 201.587 80.2607 205 84 205C87.7393 205 87.4891 201.589 88.0714 198.917C88.5056 196.926 89.3979 195.445 90.1556 194.81C90.6589 194.388 91.2005 193.971 91.5651 193.396C91.8525 192.95 92.0031 192.436 92 191.912C91.9935 191.237 91.7465 190.584 91.2992 190.06Z" fill="white"/>
<path d="M802.906 294.622C801.784 294.776 800.618 295.172 799.672 295.854C798.946 296.382 799.716 297.57 800.442 297.042C801.19 296.448 802.136 296.074 803.104 296.008C806.008 295.59 805.942 297.152 804.226 298.758C803.456 299.506 802.576 300.056 801.63 300.518C801.058 300.848 801.3 301.662 801.85 301.772C803.39 302.212 805.37 302.806 805.568 304.72C805.7 306.37 804.534 307.822 802.862 308.13C801.828 308.306 800.794 308.086 799.914 307.558C799.144 307.162 798.44 308.394 799.254 308.79C801.278 309.956 804.16 309.868 805.788 308.042C807.24 306.414 807.394 303.708 805.788 302.102C805.194 301.574 804.446 301.222 803.764 300.958C804.16 300.65 804.556 300.298 804.952 299.968C807.922 297.372 807.306 294.05 802.906 294.622ZM809.507 309.626C810.387 309.626 810.387 308.218 809.507 308.218C808.583 308.218 808.583 309.626 809.507 309.626ZM824.324 309.494C826.92 310.33 830.11 310.176 832.288 308.306C832.53 308.02 832.486 307.58 832.288 307.316C831.98 307.052 831.562 307.096 831.254 307.316C829.714 308.724 827.382 308.834 825.446 308.35C824.434 308.152 823.422 307.712 822.63 307.052C821.838 306.326 821.31 305.446 821.024 304.456C819.968 300.804 821.904 296.228 825.82 295.436C827.756 295.106 829.846 295.678 831.1 297.24C831.386 297.526 831.826 297.482 832.09 297.24C832.376 296.932 832.332 296.58 832.09 296.272C830.704 294.556 828.416 293.786 826.304 293.984C824.016 294.226 822.036 295.458 820.782 297.394C819.484 299.374 819.088 301.772 819.506 304.082C819.748 305.358 820.298 306.502 821.112 307.47C821.948 308.438 823.114 309.12 824.324 309.494ZM838.179 310.088C838.531 310.066 838.883 309.824 838.883 309.362C838.883 309.054 838.531 308.636 838.179 308.702C836.837 308.416 836.463 307.162 836.287 305.82C835.869 302.388 835.913 299.176 836.089 295.722C836.155 294.27 836.243 292.84 836.353 291.41C836.397 291.014 836.023 290.706 835.627 290.706C835.253 290.706 835.011 291.014 834.967 291.41C834.791 294.16 834.637 296.932 834.615 299.682C834.527 302.3 834.527 305.116 835.275 307.668C835.671 308.944 836.683 310.264 838.179 310.088ZM841.909 307.646C841.975 305.204 842.041 302.696 842.107 300.188C842.129 299.286 840.743 299.286 840.699 300.188C840.655 302.696 840.589 305.204 840.523 307.646C840.523 308.526 841.909 308.526 841.909 307.646ZM841.535 297.328C842.437 297.328 842.437 295.942 841.535 295.942C840.655 295.942 840.655 297.328 841.535 297.328ZM853.675 306.678C854.555 306.436 854.203 305.116 853.345 305.358C852.091 305.688 850.837 305.798 849.539 305.688C848.483 305.622 847.207 305.402 846.393 304.698C845.711 304.082 845.403 303.114 846.019 302.3C846.723 301.552 847.867 301.09 848.857 300.848C849.539 300.694 850.221 300.606 850.881 300.694C851.409 300.738 852.091 300.782 852.531 301.134C852.817 301.376 853.257 301.42 853.521 301.134C853.741 300.914 853.829 300.408 853.521 300.144C852.311 299.22 850.705 299.132 849.231 299.374C847.845 299.572 846.371 300.1 845.315 301.09C844.259 302.08 843.995 303.598 844.765 304.83C845.491 306.106 846.943 306.722 848.307 306.942C850.133 307.25 851.959 307.162 853.675 306.678ZM860.249 305.05C861.503 305.556 862.779 306.062 863.989 306.678C864.341 306.854 864.781 306.766 864.957 306.414C865.155 306.128 865.089 305.644 864.693 305.49C863.527 304.918 862.317 304.39 861.107 303.906C860.491 303.664 859.853 303.466 859.237 303.246C859.083 303.202 858.863 303.136 858.643 303.048C858.841 302.96 858.951 302.894 859.149 302.806C859.677 302.564 860.227 302.322 860.733 302.036C861.833 301.508 862.977 300.936 864.055 300.408C864.869 300.034 864.121 298.758 863.351 299.22C862.031 299.836 860.733 300.474 859.413 301.134C858.929 301.376 858.379 301.64 857.873 301.904C857.829 299.352 857.895 296.866 858.049 294.358C858.093 293.962 857.741 293.632 857.389 293.632C856.971 293.632 856.729 293.962 856.685 294.358C856.377 299.594 856.443 304.412 856.839 309.208C856.861 309.604 857.103 309.912 857.521 309.912C857.829 309.912 858.225 309.604 858.203 309.208C858.049 307.58 857.961 305.93 857.895 304.346C858.027 304.368 858.137 304.39 858.291 304.434C858.951 304.61 859.589 304.852 860.249 305.05Z" fill="white"/>
<path d="M909.9 305.82C909.592 306.392 909.24 306.854 908.8 307.272C908.404 307.69 907.854 308.152 907.26 308.262C906.182 308.416 905.654 307.008 905.456 306.26C905.016 304.984 904.95 303.62 904.928 302.278C904.928 301.882 904.928 301.552 904.928 301.178C906.226 301.178 907.546 301.178 908.844 301.178C909.724 301.134 909.724 299.77 908.844 299.814C907.546 299.836 906.292 299.836 904.95 299.836C904.994 299.22 905.016 298.56 905.082 297.9C905.214 296.272 905.456 294.666 905.72 293.06C905.786 292.73 905.61 292.334 905.236 292.246C904.928 292.158 904.444 292.334 904.378 292.73C903.96 295.04 903.674 297.438 903.542 299.814C902.904 299.77 902.2 299.77 901.54 299.748C900.66 299.682 900.66 301.046 901.54 301.09C902.2 301.134 902.882 301.178 903.52 301.178C903.52 301.596 903.52 302.058 903.52 302.564C903.542 304.06 903.696 305.644 904.29 307.162C904.73 308.35 905.698 309.692 907.216 309.582C908.118 309.516 908.888 309.054 909.504 308.438C910.164 307.888 910.714 307.25 911.154 306.502C911.55 305.776 910.384 305.094 909.9 305.82ZM914.117 301.288C912.995 302.872 913.083 305.16 914.293 306.722C915.591 308.416 917.813 308.658 919.661 307.844C921.377 307.074 922.763 305.402 922.851 303.466C922.939 302.058 922.213 300.694 921.091 299.946C919.023 298.538 915.305 299.132 914.117 301.288ZM920.365 301.134C920.937 301.53 921.355 302.212 921.421 302.96C921.597 304.412 920.739 305.666 919.551 306.326C918.385 307.008 916.757 307.184 915.701 306.238C914.733 305.292 914.469 303.73 915.019 302.498C915.349 301.728 916.009 301.156 916.757 300.826C917.681 300.43 919.375 300.386 920.365 301.134ZM940.708 304.918C941.874 302.476 940.422 299.286 937.694 299.044C936.55 298.912 935.384 299.286 934.394 299.726C934.372 299.154 934.372 298.648 934.35 298.12C934.306 297.218 932.942 297.218 932.986 298.12C933.118 302.828 933.162 307.338 933.074 311.826C933.03 312.728 934.394 312.728 934.438 311.826C934.46 310.484 934.46 309.12 934.504 307.778C936.924 308.174 939.608 307.316 940.708 304.918ZM937.298 300.408C940.466 300.606 940.466 304.874 937.54 306.15C936.616 306.568 935.494 306.568 934.504 306.37C934.504 304.72 934.46 303.048 934.438 301.442C935.296 300.738 936.242 300.496 937.298 300.408ZM944.682 307.646C944.748 305.204 944.814 302.696 944.88 300.188C944.902 299.286 943.516 299.286 943.472 300.188C943.428 302.696 943.362 305.204 943.296 307.646C943.296 308.526 944.682 308.526 944.682 307.646ZM944.308 297.328C945.21 297.328 945.21 295.942 944.308 295.942C943.428 295.942 943.428 297.328 944.308 297.328ZM956.228 299.242C954.952 298.296 953.28 298.67 952.004 299.418C950.816 300.21 949.848 301.31 949.188 302.586C948.99 302.96 948.858 303.312 948.682 303.708C948.572 302.41 948.418 301.09 948.286 299.77C948.264 299.418 948 299.088 947.626 299.088C947.274 299.088 946.878 299.418 946.9 299.77C947.164 302.498 947.45 305.16 947.714 307.866C947.736 308.196 947.934 308.504 948.286 308.526C948.616 308.57 948.99 308.416 949.078 308.042C949.43 305.556 950.046 302.85 952.004 301.112C952.818 300.496 954.028 299.748 955.084 300.166C956.206 300.606 956.47 302.08 956.558 303.136C956.69 304.786 956.624 306.48 956.36 308.108C956.294 308.482 956.47 308.834 956.866 308.966C957.174 309.054 957.68 308.834 957.702 308.482C958.01 306.766 958.098 305.028 958.01 303.334C957.856 301.838 957.526 300.21 956.228 299.242ZM970.242 307.052C972.552 308.372 975.192 307.558 977.326 306.282C978.052 305.798 977.392 304.588 976.6 305.05C975.192 305.93 973.498 306.656 971.782 306.194C970.594 305.886 969.626 304.962 969.472 303.774C970.506 303.994 971.584 304.104 972.618 304.016C973.696 303.95 975.016 303.774 975.962 303.158C976.952 302.52 977.502 301.244 976.754 300.21C976.094 299.286 974.972 298.868 973.916 298.78C971.782 298.56 969.472 299.616 968.504 301.574C967.514 303.598 968.262 305.952 970.242 307.052ZM972.728 300.21C973.454 300.122 974.29 300.144 974.972 300.496C975.214 300.606 975.61 300.804 975.698 301.09C975.786 301.398 975.61 301.706 975.368 301.904C975.016 302.168 974.554 302.3 974.158 302.388C973.63 302.52 973.124 302.608 972.618 302.652C971.628 302.696 970.616 302.608 969.67 302.388C970.154 301.156 971.408 300.408 972.728 300.21ZM987.389 298.472C986.223 299.682 985.079 300.958 984.023 302.278C982.989 301.002 981.933 299.77 980.811 298.604C980.217 297.922 979.205 298.934 979.865 299.594C980.965 300.826 982.043 302.102 983.121 303.4C981.955 304.984 980.811 306.678 979.777 308.372C979.337 309.164 980.503 309.846 980.965 309.098C981.933 307.514 982.923 305.974 984.023 304.5C985.035 305.776 986.069 307.14 987.037 308.46C987.257 308.79 987.631 308.922 987.983 308.724C988.269 308.592 988.445 308.086 988.247 307.778C987.147 306.304 986.069 304.808 984.925 303.4C986.003 302.014 987.125 300.716 988.379 299.462C989.017 298.846 988.027 297.812 987.389 298.472ZM999.705 305.82C999.397 306.392 999.045 306.854 998.605 307.272C998.209 307.69 997.659 308.152 997.065 308.262C995.987 308.416 995.459 307.008 995.261 306.26C994.821 304.984 994.755 303.62 994.733 302.278C994.733 301.882 994.733 301.552 994.733 301.178C996.031 301.178 997.351 301.178 998.649 301.178C999.529 301.134 999.529 299.77 998.649 299.814C997.351 299.836 996.097 299.836 994.755 299.836C994.799 299.22 994.821 298.56 994.887 297.9C995.019 296.272 995.261 294.666 995.525 293.06C995.591 292.73 995.415 292.334 995.041 292.246C994.733 292.158 994.249 292.334 994.183 292.73C993.765 295.04 993.479 297.438 993.347 299.814C992.709 299.77 992.005 299.77 991.345 299.748C990.465 299.682 990.465 301.046 991.345 301.09C992.005 301.134 992.687 301.178 993.325 301.178C993.325 301.596 993.325 302.058 993.325 302.564C993.347 304.06 993.501 305.644 994.095 307.162C994.535 308.35 995.503 309.692 997.021 309.582C997.923 309.516 998.693 309.054 999.309 308.438C999.969 307.888 1000.52 307.25 1000.96 306.502C1001.35 305.776 1000.19 305.094 999.705 305.82ZM1005.15 307.052C1007.46 308.372 1010.1 307.558 1012.24 306.282C1012.96 305.798 1012.3 304.588 1011.51 305.05C1010.1 305.93 1008.41 306.656 1006.69 306.194C1005.51 305.886 1004.54 304.962 1004.38 303.774C1005.42 303.994 1006.5 304.104 1007.53 304.016C1008.61 303.95 1009.93 303.774 1010.87 303.158C1011.86 302.52 1012.41 301.244 1011.67 300.21C1011.01 299.286 1009.88 298.868 1008.83 298.78C1006.69 298.56 1004.38 299.616 1003.42 301.574C1002.43 303.598 1003.17 305.952 1005.15 307.052ZM1007.64 300.21C1008.37 300.122 1009.2 300.144 1009.88 300.496C1010.13 300.606 1010.52 300.804 1010.61 301.09C1010.7 301.398 1010.52 301.706 1010.28 301.904C1009.93 302.168 1009.47 302.3 1009.07 302.388C1008.54 302.52 1008.04 302.608 1007.53 302.652C1006.54 302.696 1005.53 302.608 1004.58 302.388C1005.07 301.156 1006.32 300.408 1007.64 300.21ZM1023.77 299.242C1022.5 298.296 1020.83 298.67 1019.55 299.418C1018.36 300.21 1017.39 301.31 1016.73 302.586C1016.54 302.96 1016.4 303.312 1016.23 303.708C1016.12 302.41 1015.96 301.09 1015.83 299.77C1015.81 299.418 1015.55 299.088 1015.17 299.088C1014.82 299.088 1014.42 299.418 1014.45 299.77C1014.71 302.498 1015 305.16 1015.26 307.866C1015.28 308.196 1015.48 308.504 1015.83 308.526C1016.16 308.57 1016.54 308.416 1016.62 308.042C1016.98 305.556 1017.59 302.85 1019.55 301.112C1020.36 300.496 1021.57 299.748 1022.63 300.166C1023.75 300.606 1024.02 302.08 1024.1 303.136C1024.24 304.786 1024.17 306.48 1023.91 308.108C1023.84 308.482 1024.02 308.834 1024.41 308.966C1024.72 309.054 1025.23 308.834 1025.25 308.482C1025.56 306.766 1025.64 305.028 1025.56 303.334C1025.4 301.838 1025.07 300.21 1023.77 299.242ZM1035 298.318C1033.37 297.834 1031.61 298.01 1030.1 298.758C1028.58 299.44 1026.99 301.046 1027.87 302.784C1028.23 303.466 1029 303.906 1029.7 304.192C1030.38 304.478 1031.15 304.632 1031.92 304.742C1032.74 304.896 1035.2 305.138 1034.63 306.59C1034.32 307.316 1033.4 307.646 1032.71 307.866C1031.79 308.152 1030.84 308.196 1029.9 308.042C1029.02 307.888 1028.71 309.252 1029.59 309.384C1031.31 309.714 1033.2 309.494 1034.67 308.526C1035.38 308.086 1035.9 307.382 1036.08 306.568C1036.19 305.732 1035.93 304.918 1035.22 304.412C1034.03 303.466 1032.36 303.488 1030.93 303.158C1030.34 303.004 1029.5 302.762 1029.17 302.234C1028.82 301.64 1029.3 300.98 1029.77 300.606C1031.13 299.506 1033 299.242 1034.69 299.638C1035.55 299.858 1035.86 298.538 1035 298.318ZM1039.69 307.646C1039.75 305.204 1039.82 302.696 1039.88 300.188C1039.91 299.286 1038.52 299.286 1038.48 300.188C1038.43 302.696 1038.37 305.204 1038.3 307.646C1038.3 308.526 1039.69 308.526 1039.69 307.646ZM1039.31 297.328C1040.21 297.328 1040.21 295.942 1039.31 295.942C1038.43 295.942 1038.43 297.328 1039.31 297.328ZM1042.92 301.288C1041.79 302.872 1041.88 305.16 1043.09 306.722C1044.39 308.416 1046.61 308.658 1048.46 307.844C1050.18 307.074 1051.56 305.402 1051.65 303.466C1051.74 302.058 1051.01 300.694 1049.89 299.946C1047.82 298.538 1044.1 299.132 1042.92 301.288ZM1049.16 301.134C1049.74 301.53 1050.15 302.212 1050.22 302.96C1050.4 304.412 1049.54 305.666 1048.35 306.326C1047.18 307.008 1045.56 307.184 1044.5 306.238C1043.53 305.292 1043.27 303.73 1043.82 302.498C1044.15 301.728 1044.81 301.156 1045.56 300.826C1046.48 300.43 1048.17 300.386 1049.16 301.134ZM1063.18 299.242C1061.9 298.296 1060.23 298.67 1058.95 299.418C1057.77 300.21 1056.8 301.31 1056.14 302.586C1055.94 302.96 1055.81 303.312 1055.63 303.708C1055.52 302.41 1055.37 301.09 1055.24 299.77C1055.21 299.418 1054.95 299.088 1054.58 299.088C1054.22 299.088 1053.83 299.418 1053.85 299.77C1054.11 302.498 1054.4 305.16 1054.66 307.866C1054.69 308.196 1054.88 308.504 1055.24 308.526C1055.57 308.57 1055.94 308.416 1056.03 308.042C1056.38 305.556 1057 302.85 1058.95 301.112C1059.77 300.496 1060.98 299.748 1062.03 300.166C1063.16 300.606 1063.42 302.08 1063.51 303.136C1063.64 304.786 1063.57 306.48 1063.31 308.108C1063.24 308.482 1063.42 308.834 1063.82 308.966C1064.12 309.054 1064.63 308.834 1064.65 308.482C1064.96 306.766 1065.05 305.028 1064.96 303.334C1064.81 301.838 1064.48 300.21 1063.18 299.242Z" fill="white"/>
<path d="M787.038 302.749C787.451 302.728 787.77 302.376 787.749 301.963C787.728 301.549 787.376 301.23 786.962 301.251L787.038 302.749ZM555.823 230.678C555.645 231.052 555.804 231.499 556.178 231.677L562.273 234.577C562.647 234.755 563.095 234.596 563.273 234.222C563.451 233.848 563.292 233.401 562.918 233.223L557.499 230.645L560.077 225.227C560.255 224.853 560.096 224.405 559.722 224.227C559.348 224.049 558.901 224.208 558.723 224.582L555.823 230.678ZM786.962 301.251C759.769 302.617 742.326 295.205 728.815 284.276C722.044 278.798 716.244 272.424 710.689 265.783C705.152 259.164 699.817 252.227 694.061 245.752C682.506 232.753 669.061 221.374 647.932 217.031C626.835 212.695 598.185 215.397 556.249 230.293L556.751 231.707C598.565 216.853 626.915 214.243 647.63 218.5C668.314 222.751 681.494 233.872 692.939 246.748C698.683 253.21 703.941 260.054 709.538 266.745C715.115 273.412 720.988 279.874 727.872 285.443C741.674 296.608 759.481 304.133 787.038 302.749L786.962 301.251Z" fill="white"/>
<path d="M789 13.7501C789.414 13.7501 789.75 13.4143 789.75 13.0001C789.75 12.5859 789.414 12.2501 789 12.2501V13.7501ZM602.753 70.4307C602.715 70.8432 603.018 71.2085 603.431 71.2467L610.152 71.869C610.565 71.9072 610.93 71.6038 610.968 71.1914C611.006 70.7789 610.703 70.4136 610.29 70.3754L604.316 69.8222L604.869 63.8478C604.907 63.4353 604.604 63.07 604.191 63.0318C603.779 62.9936 603.414 63.297 603.376 63.7095L602.753 70.4307ZM789 12.2501C746.487 12.2501 714.773 14.3738 686.291 22.6549C657.79 30.9413 632.575 45.3776 603.021 69.9229L603.979 71.0768C633.425 46.6224 658.46 32.3088 686.709 24.0953C714.977 15.8764 746.513 13.7501 789 13.7501V12.2501Z" fill="white"/>
<path d="M563.117 84.0441C562.542 83.9555 561.952 84.0059 561.403 84.1907C560.853 84.3754 560.362 84.6886 559.973 85.1013C559.231 85.8912 559 86.9197 559.178 87.9503C559.34 88.8797 559.554 89.823 559.602 90.7184C559.669 92.067 559.453 93.4148 558.966 94.6832C558.526 95.8309 557.898 96.7209 556.554 96.9179C556.454 96.9328 556.091 96.9434 555.988 96.9488C555.885 96.9541 555.558 96.9339 555.458 96.919C554.113 96.722 553.48 95.8319 553.04 94.6768C552.553 93.4084 552.337 92.0606 552.405 90.712C552.453 89.8198 552.667 88.8755 552.828 87.9439C553.007 86.9133 552.776 85.8849 552.034 85.0949C551.644 84.6825 551.151 84.37 550.6 84.1864C550.05 84.0027 549.459 83.9538 548.884 84.0441C547.159 84.3113 546.01 85.7656 546 87.2913C545.995 87.8791 546.163 88.4565 546.485 88.9585C547.022 89.7996 547.903 90.4128 548.672 91.0495C549.181 91.4754 550.06 92.6838 550.492 93.9933C550.753 94.7865 550.966 95.5903 551.177 96.4015C551.472 97.5322 551.879 100.03 552.147 101.164C552.682 103.434 554.318 103.948 555.957 104L556.016 104C557.655 103.948 559.318 103.433 559.853 101.163C560.12 100.029 560.525 97.5301 560.823 96.4005C561.035 95.5935 561.247 94.7854 561.508 93.9922C561.94 92.6827 562.819 91.47 563.328 91.0484C564.097 90.4096 564.977 89.7985 565.515 88.9575C565.837 88.4555 566.005 87.878 566 87.2902C565.991 85.7614 564.847 84.306 563.117 84.0441Z" fill="white"/>
<path fill-rule="evenodd" clip-rule="evenodd" d="M879.562 296H887.438V297.75H886.312V303L888 304.75V305.917H884.062V309.417C884.062 309.739 883.811 310 883.5 310C883.239 310 883.019 309.815 882.956 309.566C882.944 309.518 882.938 309.468 882.938 309.417V305.917H879V304.75L880.688 303V297.75H879.562V296Z" fill="white"/>
<defs>
<filter id="filter0_d_9_2" x="257" y="95" width="378" height="350" filterUnits="userSpaceOnUse" color-interpolation-filters="sRGB">
<feFlood flood-opacity="0" result="BackgroundImageFix"/>
<feColorMatrix in="SourceAlpha" type="matrix" values="0 0 0 0 0 0 0 0 0 0 0 0 0 0 0 0 0 0 127 0" result="hardAlpha"/>
<feOffset dy="10"/>
<feGaussianBlur stdDeviation="15"/>
<feComposite in2="hardAlpha" operator="out"/>
<feColorMatrix type="matrix" values="0 0 0 0 0 0 0 0 0 0 0 0 0 0 0 0 0 0 0.4 0"/>
<feBlend mode="normal" in2="BackgroundImageFix" result="effect1_dropShadow_9_2"/>
<feBlend mode="normal" in="SourceGraphic" in2="effect1_dropShadow_9_2" result="shape"/>
</filter>
<filter id="filter1_f_9_2" x="293.435" y="228.115" width="37.3691" height="36.0204" filterUnits="userSpaceOnUse" color-interpolation-filters="sRGB">
<feFlood flood-opacity="0" result="BackgroundImageFix"/>
<feBlend mode="normal" in="SourceGraphic" in2="BackgroundImageFix" result="shape"/>
<feGaussianBlur stdDeviation="5" result="effect1_foregroundBlur_9_2"/>
</filter>
<filter id="filter2_f_9_2" x="295" y="224.28" width="38" height="35.3" filterUnits="userSpaceOnUse" color-interpolation-filters="sRGB">
<feFlood flood-opacity="0" result="BackgroundImageFix"/>
<feBlend mode="normal" in="SourceGraphic" in2="BackgroundImageFix" result="shape"/>
<feGaussianBlur stdDeviation="5" result="effect1_foregroundBlur_9_2"/>
</filter>
<linearGradient id="paint0_linear_9_2" x1="306.467" y1="237.446" x2="319.87" y2="251.239" gradientUnits="userSpaceOnUse">
<stop stop-color="#649A66"/>
<stop offset="1" stop-color="#2B4CCF"/>
</linearGradient>
<linearGradient id="paint1_linear_9_2" x1="306.467" y1="237.446" x2="319.87" y2="251.239" gradientUnits="userSpaceOnUse">
<stop stop-color="#649A66"/>
<stop offset="1" stop-color="#2B4CCF"/>
</linearGradient>
<linearGradient id="paint2_linear_9_2" x1="309.86" y1="253.27" x2="312.174" y2="246.511" gradientUnits="userSpaceOnUse">
<stop stop-color="#8FEBFF"/>
<stop offset="1" stop-color="#2B4CCF" stop-opacity="0"/>
</linearGradient>
<linearGradient id="paint3_linear_9_2" x1="313.117" y1="235.789" x2="312.976" y2="249.799" gradientUnits="userSpaceOnUse">
<stop stop-color="#49F150"/>
<stop offset="1" stop-color="#2B4CCF" stop-opacity="0"/>
</linearGradient>
</defs>
</svg>
