<svg width="20" height="20" viewBox="0 0 20 20" fill="none" xmlns="http://www.w3.org/2000/svg">
<path d="M8.01111 2.17067C8.38978 0.609778 10.6102 0.609778 10.9889 2.17067C11.0457 2.40515 11.1571 2.62291 11.314 2.80622C11.4708 2.98953 11.6688 3.1332 11.8917 3.22555C12.1146 3.3179 12.3561 3.35631 12.5967 3.33766C12.8372 3.31901 13.07 3.24382 13.276 3.11822C14.6476 2.28267 16.2182 3.85244 15.3827 5.22489C15.2572 5.4308 15.1822 5.66341 15.1636 5.9038C15.145 6.14419 15.1833 6.38557 15.2756 6.60834C15.3678 6.8311 15.5113 7.02896 15.6944 7.18582C15.8775 7.34269 16.0951 7.45414 16.3293 7.51111C17.8902 7.88978 17.8902 10.1102 16.3293 10.4889C16.0948 10.5457 15.8771 10.6571 15.6938 10.814C15.5105 10.9708 15.3668 11.1688 15.2744 11.3917C15.1821 11.6146 15.1437 11.8561 15.1623 12.0967C15.181 12.3372 15.2562 12.57 15.3818 12.776C16.2173 14.1476 14.6476 15.7182 13.2751 14.8827C13.0692 14.7572 12.8366 14.6822 12.5962 14.6636C12.3558 14.645 12.1144 14.6833 11.8917 14.7756C11.6689 14.8678 11.471 15.0113 11.3142 15.1944C11.1573 15.3775 11.0459 15.5951 10.9889 15.8293C10.6102 17.3902 8.38978 17.3902 8.01111 15.8293C7.9543 15.5948 7.84291 15.3771 7.68604 15.1938C7.52916 15.0105 7.33121 14.8668 7.10831 14.7744C6.88541 14.6821 6.64385 14.6437 6.4033 14.6623C6.16275 14.681 5.93 14.7562 5.724 14.8818C4.35244 15.7173 2.78178 14.1476 3.61733 12.7751C3.74276 12.5692 3.81782 12.3366 3.83643 12.0962C3.85504 11.8558 3.81666 11.6144 3.72442 11.3917C3.63218 11.1689 3.48868 10.971 3.30558 10.8142C3.12248 10.6573 2.90495 10.5459 2.67067 10.4889C1.10978 10.1102 1.10978 7.88978 2.67067 7.51111C2.90515 7.4543 3.12291 7.34291 3.30622 7.18604C3.48953 7.02916 3.6332 6.83121 3.72555 6.60831C3.8179 6.38541 3.85631 6.14385 3.83766 5.9033C3.81901 5.66275 3.74382 5.43 3.61822 5.224C2.78267 3.85244 4.35244 2.28178 5.72489 3.11733C6.61022 3.65778 7.76578 3.17956 8.01111 2.17067Z" stroke="white" stroke-width="1.5" stroke-linecap="round" stroke-linejoin="round"/>
<path d="M12.1667 8.99999C12.1667 9.70724 11.8857 10.3855 11.3856 10.8856C10.8855 11.3857 10.2073 11.6667 9.50001 11.6667C8.79277 11.6667 8.11449 11.3857 7.61439 10.8856C7.11429 10.3855 6.83334 9.70724 6.83334 8.99999C6.83334 8.29275 7.11429 7.61447 7.61439 7.11438C8.11449 6.61428 8.79277 6.33333 9.50001 6.33333C10.2073 6.33333 10.8855 6.61428 11.3856 7.11438C11.8857 7.61447 12.1667 8.29275 12.1667 8.99999V8.99999Z" stroke="white" stroke-width="1.5" stroke-linecap="round" stroke-linejoin="round"/>
</svg>
