<svg xmlns="http://www.w3.org/2000/svg" viewBox="0 0 1000 1000" xml:space="preserve"><path fill='#FFF' d="M483.7 10h32.6c56.5 2.6 112.8 13.6 165.3 34.9 109.5 43.3 202 127.8 255.2 232.9 33.8 65.8 51.7 139.5 53.3 213.4v17.6c-1.6 73-19 145.7-52 210.9-32.1 64.2-78.8 121.1-135.2 165.5-57.7 45.5-125.8 77.8-197.6 93.4-29.2 6.6-59 9.6-88.8 11.4h-32.6c-39.1-2.1-78.1-7.3-115.7-18.1-91.2-25.3-174.5-78-236.7-149.3C87.6 772.8 54.2 714 33.8 650.9 18.8 605.1 11.2 557 10 508.8v-17.5c1.7-89.5 28.1-178.3 76.3-253.8 51.1-80.6 126.3-145.8 213.5-184.7C357.5 26.6 420.4 12.9 483.7 10zm-93.6 104.5c-31 39-51.3 85.2-67.8 132 23.1 5.8 46.8 8.3 70.3 11.9 29.2 3 58.4 5.7 87.7 5.9V51.1c-37.2 7.8-67.2 34.2-90.2 63.4zm129.5 149.8c39.7-.7 79.3-4 118.5-10.4 13.3-1.7 26.5-4.2 39.6-7.4-19.3-54.7-44.1-109.2-84.8-151.4-19.9-20.8-44.7-37.9-73.2-44-.1 71 0 142.1-.1 213.2zM351.4 74.4C282.1 98.5 218.9 140 169.2 193.9c36.4 19.2 75.4 33.4 115.2 43.6 20.8-62.7 50-124.6 96.9-172-10.2 2-20 5.6-29.9 8.9zm267.1-9.2c9.8 9 17.6 19.8 26.2 29.9 32 42.8 54.4 92 71.1 142.5 39.8-10.4 78.7-24.7 115.2-43.6-56.9-61.6-131.3-107.2-212.5-128.8zM143 224.6c-56.3 73.1-89.7 163.6-93.3 255.9 65.3-.1 130.6 0 195.9 0 1.3-69.1 10.1-138.2 27.5-205.1-45.1-12-89.1-28.5-130.1-50.8zm583.8 50.7c17.4 67 26.3 136 27.5 205.1h196c-3.8-92.3-37-182.8-93.5-255.8-40.8 22.4-84.9 38.7-130 50.7zm-442 204.9c65.2.3 130.4.1 195.6.2V303.5c-56.8-1.1-113.5-6.9-169-19.1-16.9 63.8-25.1 129.8-26.6 195.8zm234.8-176.7v176.9c65.2-.1 130.4.2 195.6-.2-1.5-66-9.7-132-26.6-195.9-55.4 12.3-112.2 18.1-169 19.2zM49.7 519.6c3.7 92.3 37 182.8 93.4 255.9 40.9-22.4 85-38.8 130.1-50.7-17.4-67-26.2-136-27.6-205.1-65.3-.1-130.6-.1-195.9-.1zm235.1.2c1.5 66 9.6 132.1 26.6 196 55.4-12.4 112.2-18.1 168.9-19.2V519.7c-65.1 0-130.3-.3-195.5.1zm234.8-.2v176.9c56.8 1 113.6 7 169.1 19.1 16.6-64 25.4-130 26.3-196.1-65.1.3-130.3.1-195.4.1zm234.7 0c-1.1 69.1-10.1 138.2-27.5 205.1 45.1 11.9 89.1 28.3 130.1 50.7 56.5-73 89.6-163.6 93.5-255.8H754.3zM322.4 753.4c19.1 54.8 44.1 109.3 84.8 151.6 19.9 20.8 44.7 37.9 73.2 43.9.1-71 0-142.1 0-213.2-53.1 1.1-106.1 6.5-158 17.7zm197.2-17.7v213.2c37.2-7.9 67.2-34.2 90.1-63.3 31.1-39.1 51.5-85.4 67.9-132.2-23.8-5.7-48.1-8.5-72.3-12-28.5-2.8-57-5.5-85.7-5.7zM169.1 806c56.9 61.6 131.2 107.3 212.4 128.8-47-47.5-76.3-109.5-97.1-172.3-39.9 10-78.7 24.6-115.3 43.5zm546.6-43.6c-20.9 62.8-50.2 124.9-97.3 172.5 81.1-21.7 155.5-67.2 212.4-128.8-36.3-19.3-75.3-33.4-115.1-43.7z"/></svg>
