<svg width="24" height="24" viewBox="0 0 24 24" fill="none" xmlns="http://www.w3.org/2000/svg">
<path d="M12 24C18.6274 24 24 18.6274 24 12C24 5.37258 18.6274 0 12 0C5.37258 0 0 5.37258 0 12C0 18.6274 5.37258 24 12 24Z" fill="#11a97d"/>
<g clip-path="url(#clip0_9036_34493)">
<path d="M17.87 9.78459C17.87 9.27367 17.7696 8.77853 17.5729 8.31065C17.3821 7.86 17.1094 7.45528 16.7621 7.10797C16.4147 6.76065 16.01 6.48796 15.5594 6.29708C15.0929 6.09903 14.5964 6 14.0854 6C13.5745 6 13.0794 6.10046 12.6115 6.29708C12.1609 6.48796 11.7561 6.76065 11.4088 7.10797C11.0615 7.45528 10.7888 7.86 10.5979 8.31065C10.3999 8.77709 10.3008 9.27367 10.3008 9.78459C10.3008 10.4233 10.4616 11.049 10.7673 11.6058L6.23638 16.1324C6.13161 16.2372 6.0986 16.3965 6.16318 16.5472C6.1761 16.5788 6.19763 16.6075 6.22203 16.6319L7.23671 17.6465C7.2611 17.6709 7.28981 17.691 7.32138 17.7054C7.47208 17.77 7.63138 17.7384 7.73615 17.6322L8.5 16.8683L9.64633 18.0147C9.67073 18.0391 9.69943 18.0592 9.73099 18.0735C9.88169 18.1381 10.041 18.1065 10.1458 18.0003L11.1461 17C11.1705 16.9756 11.1906 16.9469 11.2049 16.9153C11.2695 16.7646 11.2379 16.6053 11.1317 16.5006L9.99976 15.3686L12.2627 13.1042C12.8181 13.4099 13.4453 13.5706 14.084 13.5706C14.5949 13.5706 15.09 13.4702 15.5579 13.2735C16.0086 13.0827 16.4133 12.81 16.7606 12.4627C17.1079 12.1154 17.3806 11.7106 17.5715 11.26C17.7696 10.7907 17.87 10.2955 17.87 9.78459ZM15.4116 11.1121C15.0571 11.4666 14.5849 11.6618 14.084 11.6618C13.5831 11.6618 13.1109 11.4666 12.7565 11.1121C12.402 10.7577 12.2053 10.2855 12.2053 9.78459C12.2053 9.28228 12.4005 8.81153 12.755 8.45704C13.1095 8.10255 13.5817 7.90737 14.0826 7.90737C14.5835 7.90737 15.0556 8.10255 15.4101 8.45704C15.7646 8.81153 15.9598 9.28371 15.9598 9.78459C15.9627 10.2855 15.7675 10.7577 15.4116 11.1121Z" fill="white"/>
</g>
<defs>
<clipPath id="clip0_9036_34493">
<rect width="12" height="12" fill="white" transform="translate(6 6)"/>
</clipPath>
</defs>
</svg>
